<svg width="622" height="424" viewBox="0 0 622 424" fill="none" xmlns="http://www.w3.org/2000/svg">
<rect width="622" height="424" rx="12" fill="#F8F3F1"/>
<rect x="11" y="12" width="87" height="36" rx="4" fill="white"/>
<rect x="69" y="155" width="476" height="73" rx="12" fill="#1E1E1E"/>
<path d="M97.999 183.001H111.999M96.5 184.499V198.5M113.498 184.5V198.502M97.999 200.001H111.999M97.998 181.5H95V184.498H97.998V181.5ZM97.998 198.5H95V201.498H97.998V198.5ZM114.997 181.502H112V184.5H114.998L114.997 181.502ZM114.997 198.502H112V201.5H114.998L114.997 198.502Z" stroke="white" stroke-width="1.5" stroke-miterlimit="1.5" stroke-linecap="round" stroke-linejoin="round"/>
<path d="M104.999 191.501L107.997 190.502L100.997 187.502L103.997 194.502L104.999 191.501ZM104.999 191.501L107.997 194.502" stroke="white" stroke-width="1.5" stroke-miterlimit="1.5" stroke-linecap="round" stroke-linejoin="round"/>
<path d="M140.75 200.19C139.73 200.19 138.807 200.057 137.98 199.79C137.16 199.517 136.457 199.083 135.87 198.49C135.283 197.897 134.833 197.117 134.52 196.15C134.207 195.183 134.05 194.01 134.05 192.63C134.05 190.843 134.323 189.39 134.87 188.27C135.417 187.15 136.2 186.327 137.22 185.8C138.247 185.273 139.477 185.01 140.91 185.01C141.483 185.01 142.03 185.047 142.55 185.12C143.077 185.193 143.597 185.3 144.11 185.44V186.86C143.59 186.7 143.07 186.587 142.55 186.52C142.037 186.453 141.51 186.42 140.97 186.42C139.85 186.42 138.9 186.62 138.12 187.02C137.347 187.413 136.76 188.063 136.36 188.97C135.96 189.87 135.76 191.077 135.76 192.59C135.76 194.15 135.963 195.383 136.37 196.29C136.777 197.19 137.36 197.83 138.12 198.21C138.887 198.59 139.803 198.78 140.87 198.78C141.417 198.78 141.947 198.737 142.46 198.65C142.973 198.563 143.523 198.423 144.11 198.23V199.64C143.617 199.813 143.087 199.947 142.52 200.04C141.96 200.14 141.37 200.19 140.75 200.19ZM146.19 200V183.84H147.79V190.36H147.88C148.32 189.9 148.826 189.557 149.4 189.33C149.973 189.097 150.583 188.98 151.23 188.98C151.89 188.98 152.476 189.107 152.99 189.36C153.51 189.607 153.916 190.01 154.21 190.57C154.503 191.13 154.65 191.88 154.65 192.82V200H153.06V192.89C153.06 191.957 152.85 191.313 152.43 190.96C152.016 190.6 151.466 190.42 150.78 190.42C150.446 190.42 150.1 190.47 149.74 190.57C149.38 190.663 149.03 190.817 148.69 191.03C148.35 191.237 148.05 191.513 147.79 191.86V200H146.19ZM161.607 200.19C160.674 200.19 159.86 199.997 159.167 199.61C158.474 199.217 157.937 198.61 157.557 197.79C157.177 196.963 156.987 195.893 156.987 194.58C156.987 193.28 157.174 192.217 157.547 191.39C157.927 190.563 158.464 189.957 159.157 189.57C159.85 189.177 160.667 188.98 161.607 188.98C162.547 188.98 163.364 189.177 164.057 189.57C164.75 189.957 165.284 190.563 165.657 191.39C166.037 192.21 166.227 193.273 166.227 194.58C166.227 195.88 166.034 196.943 165.647 197.77C165.267 198.597 164.73 199.207 164.037 199.6C163.35 199.993 162.54 200.19 161.607 200.19ZM161.607 198.89C162.22 198.89 162.75 198.757 163.197 198.49C163.644 198.223 163.987 197.78 164.227 197.16C164.474 196.533 164.597 195.683 164.597 194.61C164.597 193.517 164.474 192.657 164.227 192.03C163.987 191.397 163.64 190.95 163.187 190.69C162.74 190.423 162.214 190.29 161.607 190.29C160.994 190.29 160.464 190.423 160.017 190.69C159.57 190.95 159.224 191.393 158.977 192.02C158.737 192.64 158.617 193.487 158.617 194.56C158.617 195.647 158.737 196.507 158.977 197.14C159.224 197.767 159.57 198.217 160.017 198.49C160.464 198.757 160.994 198.89 161.607 198.89ZM172.779 200.19C171.845 200.19 171.032 199.997 170.339 199.61C169.645 199.217 169.109 198.61 168.729 197.79C168.349 196.963 168.159 195.893 168.159 194.58C168.159 193.28 168.345 192.217 168.719 191.39C169.099 190.563 169.635 189.957 170.329 189.57C171.022 189.177 171.839 188.98 172.779 188.98C173.719 188.98 174.535 189.177 175.229 189.57C175.922 189.957 176.455 190.563 176.829 191.39C177.209 192.21 177.399 193.273 177.399 194.58C177.399 195.88 177.205 196.943 176.819 197.77C176.439 198.597 175.902 199.207 175.209 199.6C174.522 199.993 173.712 200.19 172.779 200.19ZM172.779 198.89C173.392 198.89 173.922 198.757 174.369 198.49C174.815 198.223 175.159 197.78 175.399 197.16C175.645 196.533 175.769 195.683 175.769 194.61C175.769 193.517 175.645 192.657 175.399 192.03C175.159 191.397 174.812 190.95 174.359 190.69C173.912 190.423 173.385 190.29 172.779 190.29C172.165 190.29 171.635 190.423 171.189 190.69C170.742 190.95 170.395 191.393 170.149 192.02C169.909 192.64 169.789 193.487 169.789 194.56C169.789 195.647 169.909 196.507 170.149 197.14C170.395 197.767 170.742 198.217 171.189 198.49C171.635 198.757 172.165 198.89 172.779 198.89ZM182.432 200.19C181.885 200.19 181.362 200.153 180.862 200.08C180.369 200.007 179.889 199.897 179.422 199.75V198.47C179.955 198.63 180.465 198.747 180.952 198.82C181.439 198.887 181.932 198.92 182.432 198.92C183.372 198.92 184.052 198.76 184.472 198.44C184.899 198.12 185.112 197.67 185.112 197.09C185.112 196.597 184.985 196.22 184.732 195.96C184.479 195.693 184.049 195.497 183.442 195.37L181.972 195.07C180.985 194.857 180.279 194.507 179.852 194.02C179.432 193.527 179.222 192.893 179.222 192.12C179.222 191.207 179.572 190.457 180.272 189.87C180.979 189.277 182.062 188.98 183.522 188.98C183.989 188.98 184.432 189.007 184.852 189.06C185.279 189.113 185.689 189.193 186.082 189.3V190.59C185.642 190.47 185.219 190.383 184.812 190.33C184.412 190.277 183.992 190.25 183.552 190.25C182.865 190.25 182.315 190.333 181.902 190.5C181.495 190.66 181.202 190.88 181.022 191.16C180.842 191.433 180.752 191.74 180.752 192.08C180.752 192.507 180.872 192.86 181.112 193.14C181.352 193.42 181.772 193.627 182.372 193.76L183.842 194.06C184.842 194.267 185.559 194.607 185.992 195.08C186.432 195.553 186.652 196.197 186.652 197.01C186.652 197.99 186.292 198.767 185.572 199.34C184.859 199.907 183.812 200.19 182.432 200.19ZM193.416 200.19C192.289 200.19 191.343 200 190.576 199.62C189.816 199.233 189.243 198.63 188.856 197.81C188.469 196.983 188.276 195.903 188.276 194.57C188.276 193.297 188.453 192.247 188.806 191.42C189.166 190.593 189.673 189.98 190.326 189.58C190.986 189.18 191.766 188.98 192.666 188.98C193.553 188.98 194.306 189.183 194.926 189.59C195.553 189.99 196.029 190.607 196.356 191.44C196.683 192.267 196.846 193.323 196.846 194.61V195.1H189.146V194.01H195.666L195.316 194.25C195.316 193.237 195.209 192.43 194.996 191.83C194.789 191.23 194.486 190.8 194.086 190.54C193.693 190.273 193.213 190.14 192.646 190.14C192.086 190.14 191.599 190.27 191.186 190.53C190.773 190.79 190.453 191.22 190.226 191.82C190.006 192.42 189.896 193.23 189.896 194.25V194.81C189.896 195.81 190.029 196.61 190.296 197.21C190.569 197.803 190.979 198.233 191.526 198.5C192.073 198.76 192.766 198.89 193.606 198.89C194.019 198.89 194.446 198.853 194.886 198.78C195.333 198.7 195.806 198.59 196.306 198.45V199.76C195.786 199.907 195.289 200.013 194.816 200.08C194.349 200.153 193.883 200.19 193.416 200.19ZM202.802 200L208.112 185.2H210.402L215.712 200H214.062L209.102 185.97H209.382L204.422 200H202.802ZM205.582 195.21L205.962 193.84H212.542L212.922 195.21H205.582ZM220.868 200.18C220.194 200.18 219.598 200.057 219.078 199.81C218.558 199.563 218.148 199.16 217.848 198.6C217.548 198.04 217.398 197.29 217.398 196.35V189.15H218.998V196.28C218.998 197.207 219.204 197.853 219.618 198.22C220.031 198.58 220.564 198.76 221.218 198.76C221.544 198.76 221.884 198.71 222.238 198.61C222.598 198.51 222.944 198.353 223.278 198.14C223.611 197.927 223.908 197.65 224.168 197.31V189.15H225.768V200H224.418L224.308 198.81H224.208C223.754 199.263 223.241 199.607 222.668 199.84C222.094 200.067 221.494 200.18 220.868 200.18ZM232.487 200.19C231.701 200.19 230.984 200.013 230.337 199.66C229.691 199.3 229.174 198.727 228.787 197.94C228.407 197.153 228.217 196.107 228.217 194.8C228.217 193.493 228.424 192.41 228.837 191.55C229.257 190.69 229.874 190.047 230.687 189.62C231.501 189.193 232.501 188.98 233.687 188.98C233.994 188.98 234.301 188.993 234.607 189.02C234.914 189.047 235.197 189.08 235.457 189.12V183.84H237.057V200H235.697L235.587 198.83H235.477C235.157 199.223 234.741 199.55 234.227 199.81C233.721 200.063 233.141 200.19 232.487 200.19ZM232.847 198.81C233.334 198.81 233.811 198.703 234.277 198.49C234.744 198.277 235.137 197.937 235.457 197.47V190.48C235.217 190.42 234.937 190.373 234.617 190.34C234.297 190.307 233.981 190.29 233.667 190.29C232.407 190.29 231.454 190.63 230.807 191.31C230.167 191.99 229.847 193.107 229.847 194.66C229.847 195.727 229.974 196.563 230.227 197.17C230.487 197.77 230.841 198.193 231.287 198.44C231.741 198.687 232.261 198.81 232.847 198.81ZM240.076 200V189.15H241.676V200H240.076ZM240.876 186.79C240.516 186.79 240.24 186.703 240.046 186.53C239.86 186.35 239.766 186.103 239.766 185.79C239.766 185.47 239.86 185.22 240.046 185.04C240.24 184.86 240.516 184.77 240.876 184.77C241.236 184.77 241.51 184.86 241.696 185.04C241.89 185.22 241.986 185.47 241.986 185.79C241.986 186.103 241.89 186.35 241.696 186.53C241.51 186.703 241.236 186.79 240.876 186.79ZM249.275 200.19C248.149 200.19 247.202 200 246.435 199.62C245.675 199.233 245.102 198.63 244.715 197.81C244.329 196.983 244.135 195.903 244.135 194.57C244.135 193.297 244.312 192.247 244.665 191.42C245.025 190.593 245.532 189.98 246.185 189.58C246.845 189.18 247.625 188.98 248.525 188.98C249.412 188.98 250.165 189.183 250.785 189.59C251.412 189.99 251.889 190.607 252.215 191.44C252.542 192.267 252.705 193.323 252.705 194.61V195.1H245.005V194.01H251.525L251.175 194.25C251.175 193.237 251.069 192.43 250.855 191.83C250.649 191.23 250.345 190.8 249.945 190.54C249.552 190.273 249.072 190.14 248.505 190.14C247.945 190.14 247.459 190.27 247.045 190.53C246.632 190.79 246.312 191.22 246.085 191.82C245.865 192.42 245.755 193.23 245.755 194.25V194.81C245.755 195.81 245.889 196.61 246.155 197.21C246.429 197.803 246.839 198.233 247.385 198.5C247.932 198.76 248.625 198.89 249.465 198.89C249.879 198.89 250.305 198.853 250.745 198.78C251.192 198.7 251.665 198.59 252.165 198.45V199.76C251.645 199.907 251.149 200.013 250.675 200.08C250.209 200.153 249.742 200.19 249.275 200.19ZM254.998 200V189.15H256.348L256.458 190.37H256.568C257.008 189.923 257.522 189.58 258.108 189.34C258.695 189.1 259.318 188.98 259.978 188.98C260.658 188.98 261.258 189.107 261.778 189.36C262.305 189.607 262.715 190.013 263.008 190.58C263.308 191.14 263.458 191.89 263.458 192.83V200H261.868V192.9C261.868 191.967 261.662 191.32 261.248 190.96C260.842 190.593 260.288 190.41 259.588 190.41C259.268 190.41 258.928 190.457 258.568 190.55C258.208 190.643 257.855 190.797 257.508 191.01C257.168 191.223 256.865 191.507 256.598 191.86V200H254.998ZM270.595 200.19C269.569 200.19 268.699 199.997 267.985 199.61C267.272 199.217 266.729 198.61 266.355 197.79C265.982 196.963 265.795 195.893 265.795 194.58C265.795 193.267 265.995 192.2 266.395 191.38C266.802 190.553 267.392 189.947 268.165 189.56C268.939 189.173 269.885 188.98 271.005 188.98C271.385 188.98 271.765 189.003 272.145 189.05C272.525 189.097 272.889 189.167 273.235 189.26V190.62C272.882 190.527 272.532 190.457 272.185 190.41C271.845 190.363 271.509 190.34 271.175 190.34C270.342 190.34 269.649 190.477 269.095 190.75C268.542 191.023 268.129 191.467 267.855 192.08C267.589 192.693 267.455 193.513 267.455 194.54C267.455 195.593 267.582 196.433 267.835 197.06C268.089 197.687 268.465 198.14 268.965 198.42C269.472 198.693 270.092 198.83 270.825 198.83C271.179 198.83 271.549 198.797 271.935 198.73C272.322 198.657 272.755 198.543 273.235 198.39V199.74C272.809 199.893 272.372 200.007 271.925 200.08C271.485 200.153 271.042 200.19 270.595 200.19ZM279.588 200.19C278.461 200.19 277.514 200 276.748 199.62C275.988 199.233 275.414 198.63 275.028 197.81C274.641 196.983 274.448 195.903 274.448 194.57C274.448 193.297 274.624 192.247 274.978 191.42C275.338 190.593 275.844 189.98 276.498 189.58C277.158 189.18 277.938 188.98 278.838 188.98C279.724 188.98 280.478 189.183 281.098 189.59C281.724 189.99 282.201 190.607 282.528 191.44C282.854 192.267 283.018 193.323 283.018 194.61V195.1H275.318V194.01H281.838L281.488 194.25C281.488 193.237 281.381 192.43 281.168 191.83C280.961 191.23 280.658 190.8 280.258 190.54C279.864 190.273 279.384 190.14 278.818 190.14C278.258 190.14 277.771 190.27 277.358 190.53C276.944 190.79 276.624 191.22 276.398 191.82C276.178 192.42 276.068 193.23 276.068 194.25V194.81C276.068 195.81 276.201 196.61 276.468 197.21C276.741 197.803 277.151 198.233 277.698 198.5C278.244 198.76 278.938 198.89 279.778 198.89C280.191 198.89 280.618 198.853 281.058 198.78C281.504 198.7 281.978 198.59 282.478 198.45V199.76C281.958 199.907 281.461 200.013 280.988 200.08C280.521 200.153 280.054 200.19 279.588 200.19ZM293.544 200.19C292.977 200.19 292.404 200.147 291.824 200.06C291.244 199.98 290.7 199.86 290.194 199.7V183.84H291.794V190.27H291.884C292.217 189.89 292.637 189.58 293.144 189.34C293.657 189.1 294.24 188.98 294.894 188.98C295.647 188.98 296.337 189.157 296.964 189.51C297.59 189.857 298.09 190.427 298.464 191.22C298.844 192.007 299.034 193.057 299.034 194.37C299.034 196.33 298.567 197.79 297.634 198.75C296.707 199.71 295.344 200.19 293.544 200.19ZM293.664 198.88C294.89 198.88 295.82 198.54 296.454 197.86C297.087 197.18 297.404 196.063 297.404 194.51C297.404 193.43 297.274 192.59 297.014 191.99C296.754 191.39 296.397 190.97 295.944 190.73C295.497 190.483 294.99 190.36 294.424 190.36C293.93 190.36 293.447 190.463 292.974 190.67C292.507 190.87 292.114 191.187 291.794 191.62V198.64C292.034 198.707 292.317 198.763 292.644 198.81C292.977 198.857 293.317 198.88 293.664 198.88ZM302.788 204.4L304.458 200L304.968 198.85L308.548 189.15H310.158L304.388 204.4H302.788ZM303.998 200L299.888 189.15H301.598L305.528 200H303.998Z" fill="white"/>
<rect x="346" y="133" width="109" height="44" rx="8" fill="white"/>
<path d="M373 163C373 163.53 372.789 164.039 372.414 164.414C372.039 164.789 371.53 165 371 165C370.47 165 369.961 164.789 369.586 164.414C369.211 164.039 369 163.53 369 163C369 162.47 369.211 161.961 369.586 161.586C369.961 161.211 370.47 161 371 161C371.53 161 372.039 161.211 372.414 161.586C372.789 161.961 373 162.47 373 163ZM363 163C363 163.53 362.789 164.039 362.414 164.414C362.039 164.789 361.53 165 361 165C360.47 165 359.961 164.789 359.586 164.414C359.211 164.039 359 163.53 359 163C359 162.47 359.211 161.961 359.586 161.586C359.961 161.211 360.47 161 361 161C361.53 161 362.039 161.211 362.414 161.586C362.789 161.961 363 162.47 363 163ZM373.61 146C372.95 146 372.44 146.2 372 146.5C371.32 146.91 370.88 147.59 370.47 148.07L361.71 158.35C361.16 159 361.62 160 362.47 160H370C370.53 160 371.039 159.789 371.414 159.414C371.789 159.039 372 158.53 372 158V149.38C372.58 148.7 372.93 148 373.61 148C374.38 148 375 148.66 375 149.5V150H377V149.5C377 147.56 375.5 146 373.61 146ZM364.86 146.09C363.04 146.16 361.23 146.76 359.68 147.9L364.44 152.66L368.32 148.1C368.59 147.78 368.91 147.38 369.3 147C368.155 146.458 366.915 146.149 365.65 146.09C365.39 146.08 365.12 146.08 364.86 146.09Z" fill="black"/>
<path d="M390.232 161L394.48 149.16H396.312L400.56 161H399.24L395.272 149.776H395.496L391.528 161H390.232ZM392.456 157.168L392.76 156.072H398.024L398.328 157.168H392.456ZM404.63 164.68C404.23 164.68 403.8 164.645 403.342 164.576C402.888 164.512 402.464 164.416 402.07 164.288V163.216C402.523 163.355 402.955 163.456 403.366 163.52C403.782 163.589 404.179 163.624 404.558 163.624C405.496 163.624 406.19 163.421 406.638 163.016C407.086 162.616 407.31 161.92 407.31 160.928V160.08H407.238C406.976 160.384 406.64 160.632 406.23 160.824C405.824 161.016 405.36 161.112 404.838 161.112C404.235 161.112 403.683 160.973 403.182 160.696C402.68 160.413 402.278 159.96 401.974 159.336C401.67 158.707 401.518 157.872 401.518 156.832C401.518 155.275 401.888 154.112 402.63 153.344C403.376 152.571 404.472 152.184 405.918 152.184C406.216 152.184 406.52 152.2 406.83 152.232C407.144 152.264 407.451 152.309 407.75 152.368C408.048 152.427 408.328 152.496 408.59 152.576V160.736C408.59 162.144 408.259 163.152 407.598 163.76C406.936 164.373 405.947 164.68 404.63 164.68ZM405.214 160.016C405.603 160.016 405.984 159.933 406.358 159.768C406.736 159.603 407.054 159.349 407.31 159.008V153.408C407.118 153.36 406.891 153.32 406.63 153.288C406.368 153.251 406.096 153.232 405.814 153.232C404.843 153.232 404.102 153.504 403.59 154.048C403.078 154.587 402.822 155.475 402.822 156.712C402.822 157.571 402.926 158.24 403.134 158.72C403.342 159.2 403.624 159.536 403.982 159.728C404.344 159.92 404.755 160.016 405.214 160.016ZM414.661 161.152C413.76 161.152 413.002 161 412.389 160.696C411.781 160.387 411.322 159.904 411.013 159.248C410.704 158.587 410.549 157.723 410.549 156.656C410.549 155.637 410.69 154.797 410.973 154.136C411.261 153.475 411.666 152.984 412.189 152.664C412.717 152.344 413.341 152.184 414.061 152.184C414.77 152.184 415.373 152.347 415.869 152.672C416.37 152.992 416.752 153.485 417.013 154.152C417.274 154.813 417.405 155.659 417.405 156.688V157.08H411.245V156.208H416.461L416.181 156.4C416.181 155.589 416.096 154.944 415.925 154.464C415.76 153.984 415.517 153.64 415.197 153.432C414.882 153.219 414.498 153.112 414.045 153.112C413.597 153.112 413.208 153.216 412.877 153.424C412.546 153.632 412.29 153.976 412.109 154.456C411.933 154.936 411.845 155.584 411.845 156.4V156.848C411.845 157.648 411.952 158.288 412.165 158.768C412.384 159.243 412.712 159.587 413.149 159.8C413.586 160.008 414.141 160.112 414.813 160.112C415.144 160.112 415.485 160.083 415.837 160.024C416.194 159.96 416.573 159.872 416.973 159.76V160.808C416.557 160.925 416.16 161.011 415.781 161.064C415.408 161.123 415.034 161.152 414.661 161.152Z" fill="#303030"/>
<rect x="429.5" y="147.5" width="15" height="15" rx="3.5" stroke="black"/>
<path d="M441.467 151.8C441.2 151.533 440.8 151.533 440.533 151.8L435.533 156.8L433.467 154.733C433.2 154.467 432.8 154.467 432.533 154.733C432.267 155 432.267 155.4 432.533 155.667L435.067 158.2C435.2 158.333 435.333 158.4 435.533 158.4C435.733 158.4 435.867 158.333 436 158.2L441.467 152.733C441.733 152.467 441.733 152.067 441.467 151.8Z" fill="black"/>
<rect x="86" y="307" width="117" height="44" rx="8" fill="white"/>
<path d="M118.5 339.5H112.5V320H118.5V339.5ZM114 338H117V321.5H114V338ZM111 339.5H105V326H111V339.5ZM106.5 338H109.5V327.5H106.5V338ZM103.5 339.5H97.5V330.5H103.5V339.5Z" fill="#1E1E1E"/>
<path d="M131.352 335V323.16H132.648V333.872H138.48V335H131.352ZM143.114 335.152C142.213 335.152 141.455 335 140.842 334.696C140.234 334.387 139.775 333.904 139.466 333.248C139.157 332.587 139.002 331.723 139.002 330.656C139.002 329.637 139.143 328.797 139.426 328.136C139.714 327.475 140.119 326.984 140.642 326.664C141.17 326.344 141.794 326.184 142.514 326.184C143.223 326.184 143.826 326.347 144.322 326.672C144.823 326.992 145.205 327.485 145.466 328.152C145.727 328.813 145.858 329.659 145.858 330.688V331.08H139.698V330.208H144.914L144.634 330.4C144.634 329.589 144.549 328.944 144.378 328.464C144.213 327.984 143.97 327.64 143.65 327.432C143.335 327.219 142.951 327.112 142.498 327.112C142.05 327.112 141.661 327.216 141.33 327.424C140.999 327.632 140.743 327.976 140.562 328.456C140.386 328.936 140.298 329.584 140.298 330.4V330.848C140.298 331.648 140.405 332.288 140.618 332.768C140.837 333.243 141.165 333.587 141.602 333.8C142.039 334.008 142.594 334.112 143.266 334.112C143.597 334.112 143.938 334.083 144.29 334.024C144.647 333.96 145.026 333.872 145.426 333.76V334.808C145.01 334.925 144.613 335.011 144.234 335.064C143.861 335.123 143.487 335.152 143.114 335.152ZM149.846 335L146.558 326.32H147.926L150.782 334.08H150.622L153.486 326.32H154.774L151.486 335H149.846ZM159.723 335.152C158.822 335.152 158.065 335 157.451 334.696C156.843 334.387 156.385 333.904 156.075 333.248C155.766 332.587 155.611 331.723 155.611 330.656C155.611 329.637 155.753 328.797 156.035 328.136C156.323 327.475 156.729 326.984 157.251 326.664C157.779 326.344 158.403 326.184 159.123 326.184C159.833 326.184 160.435 326.347 160.931 326.672C161.433 326.992 161.814 327.485 162.075 328.152C162.337 328.813 162.467 329.659 162.467 330.688V331.08H156.307V330.208H161.523L161.243 330.4C161.243 329.589 161.158 328.944 160.987 328.464C160.822 327.984 160.579 327.64 160.259 327.432C159.945 327.219 159.561 327.112 159.107 327.112C158.659 327.112 158.27 327.216 157.939 327.424C157.609 327.632 157.353 327.976 157.171 328.456C156.995 328.936 156.907 329.584 156.907 330.4V330.848C156.907 331.648 157.014 332.288 157.227 332.768C157.446 333.243 157.774 333.587 158.211 333.8C158.649 334.008 159.203 334.112 159.875 334.112C160.206 334.112 160.547 334.083 160.899 334.024C161.257 333.96 161.635 333.872 162.035 333.76V334.808C161.619 334.925 161.222 335.011 160.843 335.064C160.47 335.123 160.097 335.152 159.723 335.152ZM164.302 335V322.072H165.582V335H164.302Z" fill="#303030"/>
<rect x="177.5" y="321.5" width="15" height="15" rx="3.5" stroke="black"/>
<path d="M189.467 325.8C189.2 325.533 188.8 325.533 188.533 325.8L183.533 330.8L181.467 328.733C181.2 328.467 180.8 328.467 180.533 328.733C180.267 329 180.267 329.4 180.533 329.667L183.067 332.2C183.2 332.333 183.333 332.4 183.533 332.4C183.733 332.4 183.867 332.333 184 332.2L189.467 326.733C189.733 326.467 189.733 326.067 189.467 325.8Z" fill="black"/>
<rect x="124" y="212" width="132" height="44" rx="8" fill="white"/>
<path d="M150.5 224.25V225.75H153.172L150.641 228.305C149.736 227.621 148.634 227.251 147.5 227.25C146.097 227.25 144.788 227.805 143.796 228.797C143.306 229.281 142.917 229.858 142.652 230.494C142.386 231.13 142.249 231.812 142.25 232.501C142.25 233.189 142.386 233.872 142.652 234.507C142.918 235.143 143.307 235.719 143.797 236.203C144.45 236.856 145.227 237.325 146.094 237.562C146.179 237.497 146.275 237.429 146.352 237.352C146.666 237.033 146.892 236.637 147.007 236.203C146.191 236.103 145.432 235.731 144.851 235.148C144.143 234.441 143.75 233.502 143.75 232.5C143.75 231.498 144.144 230.561 144.852 229.852C145.559 229.142 146.498 228.75 147.5 228.75C148.502 228.75 149.44 229.144 150.147 229.852C150.497 230.199 150.775 230.611 150.964 231.066C151.154 231.52 151.251 232.008 151.25 232.5C151.25 233.149 151.066 233.753 150.758 234.305C150.83 234.691 150.875 235.098 150.875 235.5C150.875 235.873 150.843 236.242 150.781 236.602C150.931 236.48 151.065 236.341 151.203 236.203C152.195 235.21 152.75 233.903 152.75 232.5C152.75 231.352 152.372 230.262 151.695 229.359L154.25 226.829V229.5H155.75V224.25H150.5ZM145.906 230.438C145.821 230.503 145.725 230.571 145.648 230.648C145.324 230.973 145.113 231.367 144.993 231.797C145.81 231.902 146.556 232.259 147.149 232.852C147.858 233.559 148.251 234.498 148.251 235.499C148.251 236.501 147.858 237.439 147.149 238.147C146.441 238.858 145.502 239.25 144.5 239.25C143.498 239.25 142.56 238.856 141.852 238.148C141.502 237.801 141.224 237.389 141.035 236.935C140.846 236.48 140.749 235.992 140.75 235.5C140.75 234.851 140.934 234.247 141.242 233.695C141.167 233.301 141.127 232.901 141.125 232.5C141.125 232.127 141.156 231.757 141.219 231.398C141.069 231.52 140.936 231.658 140.796 231.797C139.806 232.788 139.25 234.097 139.25 235.5C139.25 236.648 139.628 237.738 140.304 238.641L139.04 239.906L137.54 238.406L136.46 239.461L137.96 240.961L136.46 242.461L137.54 243.541L139.04 242.041L140.54 243.541L141.594 242.461L140.094 240.961L141.36 239.696C142.264 240.38 143.366 240.751 144.5 240.75C145.902 240.75 147.212 240.195 148.203 239.203C149.195 238.212 149.75 236.903 149.75 235.5C149.75 234.097 149.195 232.79 148.203 231.797C147.55 231.144 146.773 230.675 145.906 230.438Z" fill="#1E1E1E"/>
<path d="M174.92 240.104C173.587 240.104 172.469 239.893 171.568 239.472C170.667 239.051 169.987 238.4 169.528 237.52C169.069 236.635 168.84 235.496 168.84 234.104C168.84 232.669 169.077 231.504 169.552 230.608C170.027 229.712 170.699 229.056 171.568 228.64C172.437 228.219 173.464 228.008 174.648 228.008C175.096 228.008 175.539 228.037 175.976 228.096C176.419 228.155 176.859 228.243 177.296 228.36V229.488C176.816 229.355 176.368 229.264 175.952 229.216C175.536 229.163 175.125 229.136 174.72 229.136C173.781 229.136 172.973 229.296 172.296 229.616C171.624 229.936 171.107 230.459 170.744 231.184C170.381 231.909 170.2 232.883 170.2 234.104C170.2 235.261 170.373 236.2 170.72 236.92C171.067 237.635 171.584 238.157 172.272 238.488C172.96 238.819 173.816 238.984 174.84 238.984C175.224 238.984 175.581 238.968 175.912 238.936C176.248 238.904 176.56 238.861 176.848 238.808L176.336 239.344V234.24H177.568V239.872C177.067 239.952 176.608 240.011 176.192 240.048C175.776 240.085 175.352 240.104 174.92 240.104ZM183.645 240.152C182.744 240.152 181.987 240 181.373 239.696C180.765 239.387 180.307 238.904 179.997 238.248C179.688 237.587 179.533 236.723 179.533 235.656C179.533 234.637 179.675 233.797 179.957 233.136C180.245 232.475 180.651 231.984 181.173 231.664C181.701 231.344 182.325 231.184 183.045 231.184C183.755 231.184 184.357 231.347 184.853 231.672C185.355 231.992 185.736 232.485 185.997 233.152C186.259 233.813 186.389 234.659 186.389 235.688V236.08H180.229V235.208H185.445L185.165 235.4C185.165 234.589 185.08 233.944 184.909 233.464C184.744 232.984 184.501 232.64 184.181 232.432C183.867 232.219 183.483 232.112 183.029 232.112C182.581 232.112 182.192 232.216 181.861 232.424C181.531 232.632 181.275 232.976 181.093 233.456C180.917 233.936 180.829 234.584 180.829 235.4V235.848C180.829 236.648 180.936 237.288 181.149 237.768C181.368 238.243 181.696 238.587 182.133 238.8C182.571 239.008 183.125 239.112 183.797 239.112C184.128 239.112 184.469 239.083 184.821 239.024C185.179 238.96 185.557 238.872 185.957 238.76V239.808C185.541 239.925 185.144 240.011 184.765 240.064C184.392 240.123 184.019 240.152 183.645 240.152ZM188.224 240V231.32H189.304L189.392 232.296H189.48C189.832 231.939 190.242 231.664 190.712 231.472C191.181 231.28 191.68 231.184 192.208 231.184C192.752 231.184 193.232 231.285 193.648 231.488C194.069 231.685 194.397 232.011 194.632 232.464C194.872 232.912 194.992 233.512 194.992 234.264V240H193.72V234.32C193.72 233.573 193.554 233.056 193.224 232.768C192.898 232.475 192.456 232.328 191.896 232.328C191.64 232.328 191.368 232.365 191.08 232.44C190.792 232.515 190.509 232.637 190.232 232.808C189.96 232.979 189.717 233.205 189.504 233.488V240H188.224ZM200.277 240.152C199.648 240.152 199.075 240.011 198.557 239.728C198.04 239.44 197.627 238.981 197.317 238.352C197.013 237.723 196.861 236.885 196.861 235.84C196.861 234.795 197.027 233.928 197.357 233.24C197.693 232.552 198.187 232.037 198.837 231.696C199.488 231.355 200.288 231.184 201.237 231.184C201.483 231.184 201.728 231.195 201.973 231.216C202.219 231.237 202.445 231.264 202.653 231.296V227.072H203.933V240H202.845L202.757 239.064H202.669C202.413 239.379 202.08 239.64 201.669 239.848C201.264 240.051 200.8 240.152 200.277 240.152ZM200.565 239.048C200.955 239.048 201.336 238.963 201.709 238.792C202.083 238.621 202.397 238.349 202.653 237.976V232.384C202.461 232.336 202.237 232.299 201.981 232.272C201.725 232.245 201.472 232.232 201.221 232.232C200.213 232.232 199.451 232.504 198.933 233.048C198.421 233.592 198.165 234.485 198.165 235.728C198.165 236.581 198.267 237.251 198.469 237.736C198.677 238.216 198.96 238.555 199.317 238.752C199.68 238.949 200.096 239.048 200.565 239.048ZM210.005 240.152C209.103 240.152 208.346 240 207.733 239.696C207.125 239.387 206.666 238.904 206.357 238.248C206.047 237.587 205.893 236.723 205.893 235.656C205.893 234.637 206.034 233.797 206.317 233.136C206.605 232.475 207.01 231.984 207.533 231.664C208.061 231.344 208.685 231.184 209.405 231.184C210.114 231.184 210.717 231.347 211.213 231.672C211.714 231.992 212.095 232.485 212.357 233.152C212.618 233.813 212.749 234.659 212.749 235.688V236.08H206.589V235.208H211.805L211.525 235.4C211.525 234.589 211.439 233.944 211.269 233.464C211.103 232.984 210.861 232.64 210.541 232.432C210.226 232.219 209.842 232.112 209.389 232.112C208.941 232.112 208.551 232.216 208.221 232.424C207.89 232.632 207.634 232.976 207.453 233.456C207.277 233.936 207.189 234.584 207.189 235.4V235.848C207.189 236.648 207.295 237.288 207.509 237.768C207.727 238.243 208.055 238.587 208.493 238.8C208.93 239.008 209.485 239.112 210.157 239.112C210.487 239.112 210.829 239.083 211.181 239.024C211.538 238.96 211.917 238.872 212.317 238.76V239.808C211.901 239.925 211.503 240.011 211.125 240.064C210.751 240.123 210.378 240.152 210.005 240.152ZM214.583 240V231.32H215.655L215.759 232.48H215.839C216.138 232.069 216.511 231.76 216.959 231.552C217.412 231.339 217.884 231.232 218.375 231.232C218.508 231.232 218.628 231.237 218.735 231.248C218.847 231.259 218.956 231.275 219.063 231.296V232.48C218.94 232.459 218.818 232.445 218.695 232.44C218.578 232.435 218.45 232.432 218.311 232.432C218.028 232.432 217.732 232.477 217.423 232.568C217.119 232.653 216.831 232.789 216.559 232.976C216.287 233.157 216.055 233.387 215.863 233.664V240H214.583Z" fill="#303030"/>
<rect x="230.5" y="226.5" width="15" height="15" rx="3.5" stroke="black"/>
<rect x="358" y="256" width="166" height="44" rx="8" fill="white"/>
<g clip-path="url(#clip0_2144_176)">
<path d="M380 269C379.292 268.999 378.606 269.249 378.064 269.705C377.522 270.161 377.159 270.795 377.039 271.493C376.919 272.191 377.05 272.909 377.409 273.52C377.768 274.131 378.332 274.595 379 274.83V277H376C375.204 277 374.441 277.316 373.879 277.879C373.316 278.441 373 279.204 373 280V281.17C372.333 281.406 371.77 281.87 371.412 282.481C371.053 283.091 370.923 283.809 371.042 284.507C371.162 285.205 371.524 285.838 372.066 286.294C372.607 286.75 373.292 287 374 287C374.708 287 375.393 286.75 375.934 286.294C376.476 285.838 376.838 285.205 376.958 284.507C377.078 283.809 376.947 283.091 376.588 282.481C376.23 281.87 375.668 281.406 375 281.17V280C375 279.735 375.105 279.48 375.293 279.293C375.48 279.105 375.735 279 376 279H384C384.265 279 384.52 279.105 384.707 279.293C384.895 279.48 385 279.735 385 280V281.17C384.333 281.406 383.77 281.87 383.412 282.481C383.053 283.091 382.923 283.809 383.042 284.507C383.162 285.205 383.524 285.838 384.066 286.294C384.607 286.75 385.292 287 386 287C386.708 287 387.393 286.75 387.934 286.294C388.476 285.838 388.838 285.205 388.958 284.507C389.078 283.809 388.947 283.091 388.588 282.481C388.23 281.87 387.668 281.406 387 281.17V280C387 279.204 386.684 278.441 386.121 277.879C385.559 277.316 384.796 277 384 277H381V274.83C381.667 274.594 382.229 274.13 382.587 273.519C382.945 272.909 383.076 272.191 382.956 271.494C382.837 270.796 382.475 270.163 381.934 269.707C381.393 269.251 380.708 269 380 269Z" fill="#1E1E1E"/>
</g>
<path d="M406.152 284.096C405.853 284.096 405.557 284.088 405.264 284.072C404.971 284.061 404.667 284.043 404.352 284.016C404.037 283.995 403.704 283.965 403.352 283.928V272.352C403.672 272.288 404.005 272.232 404.352 272.184C404.704 272.136 405.056 272.101 405.408 272.08C405.765 272.053 406.112 272.04 406.448 272.04C408.4 272.04 409.872 272.533 410.864 273.52C411.861 274.507 412.36 276.027 412.36 278.08C412.36 279.472 412.128 280.611 411.664 281.496C411.2 282.381 410.507 283.037 409.584 283.464C408.667 283.885 407.523 284.096 406.152 284.096ZM406.408 282.984C407.437 282.984 408.293 282.819 408.976 282.488C409.659 282.152 410.168 281.624 410.504 280.904C410.845 280.179 411.016 279.235 411.016 278.072C411.016 276.925 410.848 275.989 410.512 275.264C410.181 274.539 409.68 274.005 409.008 273.664C408.341 273.317 407.501 273.144 406.488 273.144C406.2 273.144 405.901 273.157 405.592 273.184C405.283 273.211 404.968 273.251 404.648 273.304V282.888C404.925 282.92 405.203 282.944 405.48 282.96C405.763 282.976 406.072 282.984 406.408 282.984ZM418.067 284.152C417.166 284.152 416.408 284 415.795 283.696C415.187 283.387 414.728 282.904 414.419 282.248C414.11 281.587 413.955 280.723 413.955 279.656C413.955 278.637 414.096 277.797 414.379 277.136C414.667 276.475 415.072 275.984 415.595 275.664C416.123 275.344 416.747 275.184 417.467 275.184C418.176 275.184 418.779 275.347 419.275 275.672C419.776 275.992 420.158 276.485 420.419 277.152C420.68 277.813 420.811 278.659 420.811 279.688V280.08H414.651V279.208H419.867L419.587 279.4C419.587 278.589 419.502 277.944 419.331 277.464C419.166 276.984 418.923 276.64 418.603 276.432C418.288 276.219 417.904 276.112 417.451 276.112C417.003 276.112 416.614 276.216 416.283 276.424C415.952 276.632 415.696 276.976 415.515 277.456C415.339 277.936 415.251 278.584 415.251 279.4V279.848C415.251 280.648 415.358 281.288 415.571 281.768C415.79 282.243 416.118 282.587 416.555 282.8C416.992 283.008 417.547 283.112 418.219 283.112C418.55 283.112 418.891 283.083 419.243 283.024C419.6 282.96 419.979 282.872 420.379 282.76V283.808C419.963 283.925 419.566 284.011 419.187 284.064C418.814 284.123 418.44 284.152 418.067 284.152ZM422.646 287.52V275.32H423.734L423.83 276.272H423.91C424.171 275.952 424.504 275.691 424.91 275.488C425.32 275.285 425.784 275.184 426.302 275.184C426.926 275.184 427.496 275.323 428.014 275.6C428.531 275.877 428.944 276.333 429.254 276.968C429.563 277.597 429.718 278.44 429.718 279.496C429.718 280.541 429.552 281.408 429.222 282.096C428.891 282.784 428.4 283.299 427.75 283.64C427.099 283.981 426.296 284.152 425.342 284.152C425.096 284.152 424.851 284.139 424.606 284.112C424.36 284.091 424.134 284.067 423.926 284.04V287.52H422.646ZM425.358 283.104C426.371 283.104 427.134 282.832 427.646 282.288C428.158 281.744 428.414 280.851 428.414 279.608C428.414 278.744 428.31 278.072 428.102 277.592C427.894 277.112 427.608 276.776 427.246 276.584C426.883 276.387 426.472 276.288 426.014 276.288C425.624 276.288 425.243 276.373 424.87 276.544C424.496 276.709 424.182 276.981 423.926 277.36V282.952C424.118 282.995 424.342 283.032 424.598 283.064C424.859 283.091 425.112 283.104 425.358 283.104ZM433.829 284.144C433.013 284.144 432.37 283.933 431.901 283.512C431.437 283.091 431.205 282.512 431.205 281.776C431.205 281.019 431.453 280.429 431.949 280.008C432.45 279.581 433.253 279.315 434.357 279.208L436.685 278.96L436.805 279.808L434.437 280.064C433.749 280.133 433.253 280.301 432.949 280.568C432.65 280.829 432.501 281.192 432.501 281.656C432.501 282.141 432.639 282.512 432.917 282.768C433.194 283.024 433.607 283.152 434.157 283.152C434.535 283.152 434.917 283.072 435.301 282.912C435.685 282.747 436.029 282.472 436.333 282.088V278.256C436.333 277.723 436.25 277.312 436.085 277.024C435.919 276.731 435.671 276.525 435.341 276.408C435.01 276.291 434.594 276.232 434.093 276.232C433.767 276.232 433.397 276.261 432.981 276.32C432.57 276.379 432.159 276.477 431.749 276.616V275.568C432.122 275.445 432.533 275.352 432.981 275.288C433.434 275.219 433.861 275.184 434.261 275.184C434.997 275.184 435.61 275.28 436.101 275.472C436.597 275.664 436.967 275.989 437.213 276.448C437.463 276.901 437.589 277.523 437.589 278.312V284H436.517L436.421 283.032H436.341C436.058 283.389 435.695 283.664 435.253 283.856C434.815 284.048 434.341 284.144 433.829 284.144ZM439.911 284V275.32H440.983L441.087 276.48H441.167C441.466 276.069 441.839 275.76 442.287 275.552C442.74 275.339 443.212 275.232 443.703 275.232C443.836 275.232 443.956 275.237 444.063 275.248C444.175 275.259 444.284 275.275 444.391 275.296V276.48C444.268 276.459 444.146 276.445 444.023 276.44C443.906 276.435 443.778 276.432 443.639 276.432C443.356 276.432 443.06 276.477 442.751 276.568C442.447 276.653 442.159 276.789 441.887 276.976C441.615 277.157 441.383 277.387 441.191 277.664V284H439.911ZM449.223 284.152C448.338 284.152 447.65 283.925 447.159 283.472C446.668 283.013 446.423 282.283 446.423 281.28V275.32L446.631 272.16H447.703V281.072C447.703 281.803 447.852 282.315 448.151 282.608C448.455 282.901 448.906 283.048 449.503 283.048C449.663 283.048 449.828 283.037 449.999 283.016C450.17 282.989 450.356 282.955 450.559 282.912V283.992C450.346 284.045 450.127 284.085 449.903 284.112C449.679 284.139 449.452 284.152 449.223 284.152ZM444.791 276.376V275.32H450.431V276.376H444.791ZM451.896 284V275.32H452.976L453.064 276.304H453.152C453.482 275.931 453.861 275.651 454.288 275.464C454.72 275.277 455.178 275.184 455.664 275.184C456.144 275.184 456.573 275.283 456.952 275.48C457.33 275.677 457.629 276 457.848 276.448C458.066 276.891 458.176 277.485 458.176 278.232V284H456.912V278.312C456.912 277.565 456.765 277.048 456.472 276.76C456.178 276.472 455.792 276.328 455.312 276.328C455.072 276.328 454.821 276.368 454.56 276.448C454.304 276.528 454.056 276.656 453.816 276.832C453.576 277.003 453.362 277.232 453.176 277.52V284H451.896ZM461.856 284V278.312C461.856 277.565 461.701 277.048 461.392 276.76C461.088 276.472 460.696 276.328 460.216 276.328C459.97 276.328 459.709 276.371 459.432 276.456C459.16 276.536 458.893 276.677 458.632 276.88C458.376 277.077 458.152 277.349 457.96 277.696L457.64 276.664C458.061 276.115 458.528 275.731 459.04 275.512C459.552 275.293 460.045 275.184 460.52 275.184C461.021 275.184 461.469 275.285 461.864 275.488C462.258 275.685 462.568 276.008 462.792 276.456C463.021 276.904 463.136 277.504 463.136 278.256V284H461.856ZM469.114 284.152C468.213 284.152 467.455 284 466.842 283.696C466.234 283.387 465.775 282.904 465.466 282.248C465.157 281.587 465.002 280.723 465.002 279.656C465.002 278.637 465.143 277.797 465.426 277.136C465.714 276.475 466.119 275.984 466.642 275.664C467.17 275.344 467.794 275.184 468.514 275.184C469.223 275.184 469.826 275.347 470.322 275.672C470.823 275.992 471.205 276.485 471.466 277.152C471.727 277.813 471.858 278.659 471.858 279.688V280.08H465.698V279.208H470.914L470.634 279.4C470.634 278.589 470.549 277.944 470.378 277.464C470.213 276.984 469.97 276.64 469.65 276.432C469.335 276.219 468.951 276.112 468.498 276.112C468.05 276.112 467.661 276.216 467.33 276.424C466.999 276.632 466.743 276.976 466.562 277.456C466.386 277.936 466.298 278.584 466.298 279.4V279.848C466.298 280.648 466.405 281.288 466.618 281.768C466.837 282.243 467.165 282.587 467.602 282.8C468.039 283.008 468.594 283.112 469.266 283.112C469.597 283.112 469.938 283.083 470.29 283.024C470.647 282.96 471.026 282.872 471.426 282.76V283.808C471.01 283.925 470.613 284.011 470.234 284.064C469.861 284.123 469.487 284.152 469.114 284.152ZM473.692 284V275.32H474.772L474.86 276.296H474.948C475.3 275.939 475.711 275.664 476.18 275.472C476.65 275.28 477.148 275.184 477.676 275.184C478.22 275.184 478.7 275.285 479.116 275.488C479.538 275.685 479.866 276.011 480.1 276.464C480.34 276.912 480.46 277.512 480.46 278.264V284H479.188V278.32C479.188 277.573 479.023 277.056 478.692 276.768C478.367 276.475 477.924 276.328 477.364 276.328C477.108 276.328 476.836 276.365 476.548 276.44C476.26 276.515 475.978 276.637 475.7 276.808C475.428 276.979 475.186 277.205 474.972 277.488V284H473.692ZM486.098 284.152C485.213 284.152 484.525 283.925 484.034 283.472C483.543 283.013 483.298 282.283 483.298 281.28V275.32L483.506 272.16H484.578V281.072C484.578 281.803 484.727 282.315 485.026 282.608C485.33 282.901 485.781 283.048 486.378 283.048C486.538 283.048 486.703 283.037 486.874 283.016C487.045 282.989 487.231 282.955 487.434 282.912V283.992C487.221 284.045 487.002 284.085 486.778 284.112C486.554 284.139 486.327 284.152 486.098 284.152ZM481.666 276.376V275.32H487.306V276.376H481.666Z" fill="#303030"/>
<rect x="498.5" y="270.5" width="15" height="15" rx="3.5" stroke="black"/>
<rect x="108" y="12" width="491" height="36" rx="4" fill="white"/>
<defs>
<clipPath id="clip0_2144_176">
<rect width="24" height="24" fill="white" transform="translate(368 266)"/>
</clipPath>
</defs>
</svg>
