<svg width="48" height="48" viewBox="0 0 48 48" fill="none" xmlns="http://www.w3.org/2000/svg">
<path d="M38 34V23.6C37 23.8 36 24 35 24H34V36H14V22C14 16.4 18.4 12 24 12C24.2 9.4 25.4 7.2 27 5.4C26.4 4.6 25.2 4 24 4C21.8 4 20 5.8 20 8V8.6C14 10.4 10 15.8 10 22V34L6 38V40H42V38L38 34ZM20 42C20 44.2 21.8 46 24 46C26.2 46 28 44.2 28 42H20ZM42 13C42 16.8 38.8 20 35 20C31.2 20 28 16.8 28 13C28 9.2 31.2 6 35 6C38.8 6 42 9.2 42 13Z" fill="black"/>
<circle cx="35" cy="13" r="7" fill="#DD0000"/>
</svg>
