<svg width="25" height="24" viewBox="0 0 25 24" fill="none" xmlns="http://www.w3.org/2000/svg">
<g clip-path="url(#clip0_2144_566)">
<path d="M2 12C2 14.7848 3.10625 17.4555 5.07538 19.4246C7.04451 21.3938 9.71523 22.5 12.5 22.5C15.2848 22.5 17.9555 21.3938 19.9246 19.4246C21.8938 17.4555 23 14.7848 23 12C23 9.21523 21.8938 6.54451 19.9246 4.57538C17.9555 2.60625 15.2848 1.5 12.5 1.5C9.71523 1.5 7.04451 2.60625 5.07538 4.57538C3.10625 6.54451 2 9.21523 2 12ZM24.5 12C24.5 15.1826 23.2357 18.2348 20.9853 20.4853C18.7348 22.7357 15.6826 24 12.5 24C9.3174 24 6.26516 22.7357 4.01472 20.4853C1.76428 18.2348 0.5 15.1826 0.5 12C0.5 8.8174 1.76428 5.76516 4.01472 3.51472C6.26516 1.26428 9.3174 0 12.5 0C15.6826 0 18.7348 1.26428 20.9853 3.51472C23.2357 5.76516 24.5 8.8174 24.5 12ZM12.719 7.488C10.901 7.488 9.8285 8.868 9.8285 11.241V12.831C9.8285 15.1875 10.883 16.524 12.719 16.524C14.1875 16.524 15.1805 15.645 15.3125 14.397H17.255V14.5365C17.105 16.7085 15.224 18.237 12.71 18.237C9.5735 18.237 7.8065 16.233 7.8065 12.8325V11.223C7.8065 7.8315 9.608 5.766 12.7115 5.766C15.233 5.766 17.114 7.347 17.255 9.624V9.756H15.3125C15.1805 8.4375 14.1605 7.488 12.719 7.488Z" fill="#303030"/>
</g>
<defs>
<clipPath id="clip0_2144_566">
<rect width="24" height="24" fill="white" transform="translate(0.5)"/>
</clipPath>
</defs>
</svg>
