<svg width="25" height="25" viewBox="0 0 25 25" fill="none" xmlns="http://www.w3.org/2000/svg">
<path d="M10.6344 11.036L12.2454 9.56C12.6859 9.15563 12.9955 8.62885 13.1345 8.04727C13.2735 7.46569 13.2355 6.85584 13.0254 6.296L12.3384 4.4615C12.0818 3.77663 11.5736 3.21538 10.9176 2.89208C10.2615 2.56879 9.50689 2.50779 8.80742 2.7215C6.23342 3.509 4.25492 5.9015 4.86392 8.7425C5.26442 10.6115 6.03092 12.9575 7.48292 15.4535C8.93792 17.9555 10.5999 19.8035 12.0249 21.1025C14.1759 23.06 17.2509 22.571 19.2294 20.726C19.7598 20.2315 20.0816 19.5534 20.1292 18.8298C20.1769 18.1063 19.9468 17.3918 19.4859 16.832L18.2259 15.302C17.8459 14.8393 17.3361 14.5009 16.7622 14.3304C16.1883 14.1598 15.5764 14.1649 15.0054 14.345L12.9234 15.0005C12.3857 14.4456 11.9146 13.83 11.5194 13.166C11.138 12.4945 10.8408 11.7786 10.6344 11.0345" fill="black"/>
</svg>
