<svg width="24" height="25" viewBox="0 0 24 25" fill="none" xmlns="http://www.w3.org/2000/svg">
<path d="M17 20.2834C17 20.8139 16.7893 21.3226 16.4142 21.6977C16.0391 22.0727 15.5304 22.2834 15 22.2834C14.4696 22.2834 13.9609 22.0727 13.5858 21.6977C13.2107 21.3226 13 20.8139 13 20.2834C13 19.753 13.2107 19.2443 13.5858 18.8692C13.9609 18.4942 14.4696 18.2834 15 18.2834C15.5304 18.2834 16.0391 18.4942 16.4142 18.8692C16.7893 19.2443 17 19.753 17 20.2834ZM7 20.2834C7 20.8139 6.78929 21.3226 6.41421 21.6977C6.03914 22.0727 5.53043 22.2834 5 22.2834C4.46957 22.2834 3.96086 22.0727 3.58579 21.6977C3.21071 21.3226 3 20.8139 3 20.2834C3 19.753 3.21071 19.2443 3.58579 18.8692C3.96086 18.4942 4.46957 18.2834 5 18.2834C5.53043 18.2834 6.03914 18.4942 6.41421 18.8692C6.78929 19.2443 7 19.753 7 20.2834ZM17.61 3.28345C16.95 3.28345 16.44 3.48345 16 3.78345C15.32 4.19345 14.88 4.87345 14.47 5.35345L5.71 15.6334C5.16 16.2834 5.62 17.2834 6.47 17.2834H14C14.5304 17.2834 15.0391 17.0727 15.4142 16.6977C15.7893 16.3226 16 15.8139 16 15.2834V6.66345C16.58 5.98345 16.93 5.28345 17.61 5.28345C18.38 5.28345 19 5.94345 19 6.78345V7.28345H21V6.78345C21 4.84345 19.5 3.28345 17.61 3.28345ZM8.86 3.37345C7.04 3.44345 5.23 4.04345 3.68 5.18345L8.44 9.94345L12.32 5.38345C12.59 5.06345 12.91 4.66345 13.3 4.28345C12.1554 3.74188 10.9148 3.43258 9.65 3.37345C9.39 3.36345 9.12 3.36345 8.86 3.37345Z" fill="black"/>
</svg>
