<svg width="32" height="33" viewBox="0 0 32 33" fill="none" xmlns="http://www.w3.org/2000/svg">
<path d="M16 25.6169H8C6.93913 25.6169 5.92172 25.1954 5.17157 24.4453C4.42143 23.6951 4 22.6777 4 21.6169V10.9502C4 9.88933 4.42143 8.87191 5.17157 8.12177C5.92172 7.37162 6.93913 6.9502 8 6.9502H24C25.0609 6.9502 26.0783 7.37162 26.8284 8.12177C27.5786 8.87191 28 9.88933 28 10.9502V16.9502M4 13.6169H28M21.3333 25.6169H29.3333M29.3333 25.6169L25.3333 21.6169M29.3333 25.6169L25.3333 29.6169M9.34 20.2835H9.34667M14.6667 20.2835H17.3333" stroke="#303030" stroke-width="2" stroke-linecap="round" stroke-linejoin="round"/>
</svg>
