<svg width="622" height="424" viewBox="0 0 622 424" fill="none" xmlns="http://www.w3.org/2000/svg">
<rect width="622" height="424" rx="12" fill="#F8F3F1"/>
<rect x="11" y="12" width="87" height="36" rx="4" fill="white"/>
<rect x="108" y="12" width="491" height="36" rx="4" fill="white"/>
<rect x="49" y="155" width="524" height="80" rx="12" fill="#1E1E1E"/>
<path d="M101 207H77C75.897 207 75 206.103 75 205V199H77V205H101V199H103V205C103 206.103 102.103 207 101 207Z" fill="white"/>
<path d="M90 196V200C90 200.265 90.1054 200.52 90.2929 200.707C90.4804 200.895 90.7348 201 91 201H95C95.2652 201 95.5196 200.895 95.7071 200.707C95.8946 200.52 96 200.265 96 200V196C96 195.735 95.8946 195.48 95.7071 195.293C95.5196 195.105 95.2652 195 95 195H91C90.7348 195 90.4804 195.105 90.2929 195.293C90.1054 195.48 90 195.735 90 196ZM92 197H94V199H92V197ZM82 196V200C82 200.265 82.1054 200.52 82.2929 200.707C82.4804 200.895 82.7348 201 83 201H87C87.2652 201 87.5196 200.895 87.7071 200.707C87.8946 200.52 88 200.265 88 200V196C88 195.735 87.8946 195.48 87.7071 195.293C87.5196 195.105 87.2652 195 87 195H83C82.7348 195 82.4804 195.105 82.2929 195.293C82.1054 195.48 82 195.735 82 196ZM84 197H86V199H84V197ZM90 188V192C90 192.265 90.1054 192.52 90.2929 192.707C90.4804 192.895 90.7348 193 91 193H95C95.2652 193 95.5196 192.895 95.7071 192.707C95.8946 192.52 96 192.265 96 192V188C96 187.735 95.8946 187.48 95.7071 187.293C95.5196 187.105 95.2652 187 95 187H91C90.7348 187 90.4804 187.105 90.2929 187.293C90.1054 187.48 90 187.735 90 188ZM92 189H94V191H92V189ZM78 184V192C78 192.265 78.1054 192.52 78.2929 192.707C78.4804 192.895 78.7348 193 79 193H87C87.2652 193 87.5196 192.895 87.7071 192.707C87.8946 192.52 88 192.265 88 192V184C88 183.735 87.8946 183.48 87.7071 183.293C87.5196 183.105 87.2652 183 87 183H79C78.7348 183 78.4804 183.105 78.2929 183.293C78.1054 183.48 78 183.735 78 184ZM80 185H86V191H80V185Z" fill="white"/>
<path d="M126.19 203.62C125.817 203.62 125.447 203.61 125.08 203.59C124.713 203.577 124.333 203.553 123.94 203.52C123.547 203.493 123.13 203.457 122.69 203.41V188.94C123.09 188.86 123.507 188.79 123.94 188.73C124.38 188.67 124.82 188.627 125.26 188.6C125.707 188.567 126.14 188.55 126.56 188.55C129 188.55 130.84 189.167 132.08 190.4C133.327 191.633 133.95 193.533 133.95 196.1C133.95 197.84 133.66 199.263 133.08 200.37C132.5 201.477 131.633 202.297 130.48 202.83C129.333 203.357 127.903 203.62 126.19 203.62ZM126.51 202.23C127.797 202.23 128.867 202.023 129.72 201.61C130.573 201.19 131.21 200.53 131.63 199.63C132.057 198.723 132.27 197.543 132.27 196.09C132.27 194.657 132.06 193.487 131.64 192.58C131.227 191.673 130.6 191.007 129.76 190.58C128.927 190.147 127.877 189.93 126.61 189.93C126.25 189.93 125.877 189.947 125.49 189.98C125.103 190.013 124.71 190.063 124.31 190.13V202.11C124.657 202.15 125.003 202.18 125.35 202.2C125.703 202.22 126.09 202.23 126.51 202.23ZM141.084 203.69C139.957 203.69 139.011 203.5 138.244 203.12C137.484 202.733 136.911 202.13 136.524 201.31C136.137 200.483 135.944 199.403 135.944 198.07C135.944 196.797 136.121 195.747 136.474 194.92C136.834 194.093 137.341 193.48 137.994 193.08C138.654 192.68 139.434 192.48 140.334 192.48C141.221 192.48 141.974 192.683 142.594 193.09C143.221 193.49 143.697 194.107 144.024 194.94C144.351 195.767 144.514 196.823 144.514 198.11V198.6H136.814V197.51H143.334L142.984 197.75C142.984 196.737 142.877 195.93 142.664 195.33C142.457 194.73 142.154 194.3 141.754 194.04C141.361 193.773 140.881 193.64 140.314 193.64C139.754 193.64 139.267 193.77 138.854 194.03C138.441 194.29 138.121 194.72 137.894 195.32C137.674 195.92 137.564 196.73 137.564 197.75V198.31C137.564 199.31 137.697 200.11 137.964 200.71C138.237 201.303 138.647 201.733 139.194 202C139.741 202.26 140.434 202.39 141.274 202.39C141.687 202.39 142.114 202.353 142.554 202.28C143.001 202.2 143.474 202.09 143.974 201.95V203.26C143.454 203.407 142.957 203.513 142.484 203.58C142.017 203.653 141.551 203.69 141.084 203.69ZM146.807 203.5V187.34H148.407V203.5H146.807ZM151.436 203.5V192.65H153.036V203.5H151.436ZM152.236 190.29C151.876 190.29 151.599 190.203 151.406 190.03C151.219 189.85 151.126 189.603 151.126 189.29C151.126 188.97 151.219 188.72 151.406 188.54C151.599 188.36 151.876 188.27 152.236 188.27C152.596 188.27 152.869 188.36 153.056 188.54C153.249 188.72 153.346 188.97 153.346 189.29C153.346 189.603 153.249 189.85 153.056 190.03C152.869 190.203 152.596 190.29 152.236 190.29ZM158.815 203.5L154.705 192.65H156.415L159.985 202.35H159.785L163.365 192.65H164.975L160.865 203.5H158.815ZM171.162 203.69C170.035 203.69 169.089 203.5 168.322 203.12C167.562 202.733 166.989 202.13 166.602 201.31C166.215 200.483 166.022 199.403 166.022 198.07C166.022 196.797 166.199 195.747 166.552 194.92C166.912 194.093 167.419 193.48 168.072 193.08C168.732 192.68 169.512 192.48 170.412 192.48C171.299 192.48 172.052 192.683 172.672 193.09C173.299 193.49 173.775 194.107 174.102 194.94C174.429 195.767 174.592 196.823 174.592 198.11V198.6H166.892V197.51H173.412L173.062 197.75C173.062 196.737 172.955 195.93 172.742 195.33C172.535 194.73 172.232 194.3 171.832 194.04C171.439 193.773 170.959 193.64 170.392 193.64C169.832 193.64 169.345 193.77 168.932 194.03C168.519 194.29 168.199 194.72 167.972 195.32C167.752 195.92 167.642 196.73 167.642 197.75V198.31C167.642 199.31 167.775 200.11 168.042 200.71C168.315 201.303 168.725 201.733 169.272 202C169.819 202.26 170.512 202.39 171.352 202.39C171.765 202.39 172.192 202.353 172.632 202.28C173.079 202.2 173.552 202.09 174.052 201.95V203.26C173.532 203.407 173.035 203.513 172.562 203.58C172.095 203.653 171.629 203.69 171.162 203.69ZM176.885 203.5V192.65H178.225L178.355 194.1H178.455C178.828 193.587 179.295 193.2 179.855 192.94C180.422 192.673 181.012 192.54 181.625 192.54C181.792 192.54 181.942 192.547 182.075 192.56C182.215 192.573 182.352 192.593 182.485 192.62V194.1C182.332 194.073 182.178 194.057 182.025 194.05C181.878 194.043 181.718 194.04 181.545 194.04C181.192 194.04 180.822 194.097 180.435 194.21C180.055 194.317 179.695 194.487 179.355 194.72C179.015 194.947 178.725 195.233 178.485 195.58V203.5H176.885ZM191.684 203.68C190.664 203.68 189.861 203.417 189.274 202.89C188.694 202.363 188.404 201.64 188.404 200.72C188.404 199.773 188.714 199.037 189.334 198.51C189.961 197.977 190.964 197.643 192.344 197.51L195.254 197.2L195.404 198.26L192.444 198.58C191.584 198.667 190.964 198.877 190.584 199.21C190.211 199.537 190.024 199.99 190.024 200.57C190.024 201.177 190.198 201.64 190.544 201.96C190.891 202.28 191.408 202.44 192.094 202.44C192.568 202.44 193.044 202.34 193.524 202.14C194.004 201.933 194.434 201.59 194.814 201.11V196.32C194.814 195.653 194.711 195.14 194.504 194.78C194.298 194.413 193.988 194.157 193.574 194.01C193.161 193.863 192.641 193.79 192.014 193.79C191.608 193.79 191.144 193.827 190.624 193.9C190.111 193.973 189.598 194.097 189.084 194.27V192.96C189.551 192.807 190.064 192.69 190.624 192.61C191.191 192.523 191.724 192.48 192.224 192.48C193.144 192.48 193.911 192.6 194.524 192.84C195.144 193.08 195.608 193.487 195.914 194.06C196.228 194.627 196.384 195.403 196.384 196.39V203.5H195.044L194.924 202.29H194.824C194.471 202.737 194.018 203.08 193.464 203.32C192.918 203.56 192.324 203.68 191.684 203.68ZM202.987 203.69C202.201 203.69 201.484 203.513 200.837 203.16C200.191 202.8 199.674 202.227 199.287 201.44C198.907 200.653 198.717 199.607 198.717 198.3C198.717 196.993 198.924 195.91 199.337 195.05C199.757 194.19 200.374 193.547 201.187 193.12C202.001 192.693 203.001 192.48 204.187 192.48C204.494 192.48 204.801 192.493 205.107 192.52C205.414 192.547 205.697 192.58 205.957 192.62V187.34H207.557V203.5H206.197L206.087 202.33H205.977C205.657 202.723 205.241 203.05 204.727 203.31C204.221 203.563 203.641 203.69 202.987 203.69ZM203.347 202.31C203.834 202.31 204.311 202.203 204.777 201.99C205.244 201.777 205.637 201.437 205.957 200.97V193.98C205.717 193.92 205.437 193.873 205.117 193.84C204.797 193.807 204.481 193.79 204.167 193.79C202.907 193.79 201.954 194.13 201.307 194.81C200.667 195.49 200.347 196.607 200.347 198.16C200.347 199.227 200.474 200.063 200.727 200.67C200.987 201.27 201.341 201.693 201.787 201.94C202.241 202.187 202.761 202.31 203.347 202.31ZM218.209 203.5L214.099 192.65H215.809L219.379 202.35H219.179L222.759 192.65H224.369L220.259 203.5H218.209ZM226.045 203.5V192.65H227.645V203.5H226.045ZM226.845 190.29C226.485 190.29 226.208 190.203 226.015 190.03C225.828 189.85 225.735 189.603 225.735 189.29C225.735 188.97 225.828 188.72 226.015 188.54C226.208 188.36 226.485 188.27 226.845 188.27C227.205 188.27 227.478 188.36 227.665 188.54C227.858 188.72 227.955 188.97 227.955 189.29C227.955 189.603 227.858 189.85 227.665 190.03C227.478 190.203 227.205 190.29 226.845 190.29ZM233.364 203.68C232.344 203.68 231.541 203.417 230.954 202.89C230.374 202.363 230.084 201.64 230.084 200.72C230.084 199.773 230.394 199.037 231.014 198.51C231.641 197.977 232.644 197.643 234.024 197.51L236.934 197.2L237.084 198.26L234.124 198.58C233.264 198.667 232.644 198.877 232.264 199.21C231.891 199.537 231.704 199.99 231.704 200.57C231.704 201.177 231.877 201.64 232.224 201.96C232.571 202.28 233.087 202.44 233.774 202.44C234.247 202.44 234.724 202.34 235.204 202.14C235.684 201.933 236.114 201.59 236.494 201.11V196.32C236.494 195.653 236.391 195.14 236.184 194.78C235.977 194.413 235.667 194.157 235.254 194.01C234.841 193.863 234.321 193.79 233.694 193.79C233.287 193.79 232.824 193.827 232.304 193.9C231.791 193.973 231.277 194.097 230.764 194.27V192.96C231.231 192.807 231.744 192.69 232.304 192.61C232.871 192.523 233.404 192.48 233.904 192.48C234.824 192.48 235.591 192.6 236.204 192.84C236.824 193.08 237.287 193.487 237.594 194.06C237.907 194.627 238.064 195.403 238.064 196.39V203.5H236.724L236.604 202.29H236.504C236.151 202.737 235.697 203.08 235.144 203.32C234.597 203.56 234.004 203.68 233.364 203.68ZM241.767 203.63C241.42 203.63 241.14 203.53 240.927 203.33C240.72 203.13 240.617 202.86 240.617 202.52C240.617 202.18 240.72 201.91 240.927 201.71C241.134 201.51 241.414 201.41 241.767 201.41C242.114 201.41 242.39 201.513 242.597 201.72C242.81 201.92 242.917 202.187 242.917 202.52C242.917 202.853 242.81 203.123 242.597 203.33C242.384 203.53 242.107 203.63 241.767 203.63ZM241.767 194.75C241.42 194.75 241.14 194.65 240.927 194.45C240.72 194.25 240.617 193.98 240.617 193.64C240.617 193.3 240.72 193.03 240.927 192.83C241.134 192.63 241.414 192.53 241.767 192.53C242.114 192.53 242.39 192.633 242.597 192.84C242.81 193.04 242.917 193.307 242.917 193.64C242.917 193.973 242.81 194.243 242.597 194.45C242.384 194.65 242.107 194.75 241.767 194.75Z" fill="white"/>
<path d="M532.41 191.58L537 196.17L541.59 191.58L543 193L537 199L531 193L532.41 191.58Z" fill="#E3E3E3"/>
<rect x="443" y="133" width="112" height="44" rx="8" fill="white"/>
<path d="M473 145H457C455.9 145 455.01 145.9 455.01 147L455 165L459 161H473C474.1 161 475 160.1 475 159V147C475 145.9 474.1 145 473 145ZM462 154H460V152H462V154ZM466 154H464V152H466V154ZM470 154H468V152H470V154Z" fill="#303030"/>
<path d="M490.696 161.152C490.227 161.152 489.736 161.112 489.224 161.032C488.717 160.952 488.235 160.832 487.776 160.672V159.552C488.107 159.664 488.44 159.757 488.776 159.832C489.117 159.901 489.451 159.955 489.776 159.992C490.101 160.029 490.413 160.048 490.712 160.048C491.693 160.048 492.419 159.864 492.888 159.496C493.357 159.123 493.592 158.581 493.592 157.872C493.592 157.269 493.413 156.811 493.056 156.496C492.704 156.176 492.101 155.904 491.248 155.68L490.608 155.512C489.6 155.256 488.845 154.869 488.344 154.352C487.843 153.829 487.592 153.141 487.592 152.288C487.592 151.269 487.944 150.469 488.648 149.888C489.357 149.301 490.411 149.008 491.808 149.008C492.267 149.008 492.72 149.04 493.168 149.104C493.616 149.163 494.024 149.251 494.392 149.368V150.488C493.987 150.36 493.568 150.267 493.136 150.208C492.709 150.144 492.277 150.112 491.84 150.112C491.163 150.112 490.608 150.195 490.176 150.36C489.744 150.525 489.424 150.765 489.216 151.08C489.008 151.395 488.904 151.773 488.904 152.216C488.904 152.797 489.067 153.248 489.392 153.568C489.717 153.888 490.28 154.155 491.08 154.368L491.728 154.528C492.453 154.715 493.051 154.955 493.52 155.248C493.989 155.536 494.339 155.891 494.568 156.312C494.797 156.728 494.912 157.221 494.912 157.792C494.912 158.507 494.747 159.115 494.416 159.616C494.085 160.112 493.605 160.493 492.976 160.76C492.347 161.021 491.587 161.152 490.696 161.152ZM496.884 161V149.16H498.428L502.708 158.352H502.428L506.652 149.16H508.196V161H506.972V150.288H507.34L503.124 159.36H501.956L497.692 150.288H498.108V161H496.884ZM513.274 161.152C512.805 161.152 512.314 161.112 511.802 161.032C511.295 160.952 510.813 160.832 510.354 160.672V159.552C510.685 159.664 511.018 159.757 511.354 159.832C511.695 159.901 512.029 159.955 512.354 159.992C512.679 160.029 512.991 160.048 513.29 160.048C514.271 160.048 514.997 159.864 515.466 159.496C515.935 159.123 516.17 158.581 516.17 157.872C516.17 157.269 515.991 156.811 515.634 156.496C515.282 156.176 514.679 155.904 513.826 155.68L513.186 155.512C512.178 155.256 511.423 154.869 510.922 154.352C510.421 153.829 510.17 153.141 510.17 152.288C510.17 151.269 510.522 150.469 511.226 149.888C511.935 149.301 512.989 149.008 514.386 149.008C514.845 149.008 515.298 149.04 515.746 149.104C516.194 149.163 516.602 149.251 516.97 149.368V150.488C516.565 150.36 516.146 150.267 515.714 150.208C515.287 150.144 514.855 150.112 514.418 150.112C513.741 150.112 513.186 150.195 512.754 150.36C512.322 150.525 512.002 150.765 511.794 151.08C511.586 151.395 511.482 151.773 511.482 152.216C511.482 152.797 511.645 153.248 511.97 153.568C512.295 153.888 512.858 154.155 513.658 154.368L514.306 154.528C515.031 154.715 515.629 154.955 516.098 155.248C516.567 155.536 516.917 155.891 517.146 156.312C517.375 156.728 517.49 157.221 517.49 157.792C517.49 158.507 517.325 159.115 516.994 159.616C516.663 160.112 516.183 160.493 515.554 160.76C514.925 161.021 514.165 161.152 513.274 161.152Z" fill="#303030"/>
<rect x="529.5" y="147.5" width="15" height="15" rx="3.5" stroke="black"/>
<path d="M541.467 151.8C541.2 151.533 540.8 151.533 540.533 151.8L535.533 156.8L533.467 154.733C533.2 154.467 532.8 154.467 532.533 154.733C532.267 155 532.267 155.4 532.533 155.667L535.067 158.2C535.2 158.333 535.333 158.4 535.533 158.4C535.733 158.4 535.867 158.333 536 158.2L541.467 152.733C541.733 152.467 541.733 152.067 541.467 151.8Z" fill="black"/>
<rect x="301" y="213" width="119" height="44" rx="8" fill="white"/>
<path d="M333 228.5H320C318.9 228.5 318 229.4 318 230.5V239.5C318 240.03 318.211 240.539 318.586 240.914C318.961 241.289 319.47 241.5 320 241.5H333C334.11 241.5 335 240.61 335 239.5V230.5C335 229.97 334.789 229.461 334.414 229.086C334.039 228.711 333.53 228.5 333 228.5ZM333 232.17L326.5 235.5L320 232.17V230.5L326.5 233.81L333 230.5V232.17ZM316 239.5C316 239.67 316.03 239.83 316.05 240H312C311.448 240 311 239.55 311 239C311 238.45 311.448 238 312 238H316V239.5ZM314 230H316.05C316.03 230.17 316 230.33 316 230.5V232H314C313.45 232 313 231.55 313 231C313 230.45 313.45 230 314 230ZM312 235C312 234.45 312.45 234 313 234H316V236H313C312.45 236 312 235.55 312 235Z" fill="#303030"/>
<path d="M346.352 241V229.16H353.68V230.256H347.64V239.904H353.76V241H346.352ZM347.168 235.472V234.376H352.896V235.472H347.168ZM355.536 241V232.32H356.616L356.704 233.304H356.792C357.123 232.931 357.501 232.651 357.928 232.464C358.36 232.277 358.819 232.184 359.304 232.184C359.784 232.184 360.213 232.283 360.592 232.48C360.971 232.677 361.269 233 361.488 233.448C361.707 233.891 361.816 234.485 361.816 235.232V241H360.552V235.312C360.552 234.565 360.405 234.048 360.112 233.76C359.819 233.472 359.432 233.328 358.952 233.328C358.712 233.328 358.461 233.368 358.2 233.448C357.944 233.528 357.696 233.656 357.456 233.832C357.216 234.003 357.003 234.232 356.816 234.52V241H355.536ZM365.496 241V235.312C365.496 234.565 365.341 234.048 365.032 233.76C364.728 233.472 364.336 233.328 363.856 233.328C363.611 233.328 363.349 233.371 363.072 233.456C362.8 233.536 362.533 233.677 362.272 233.88C362.016 234.077 361.792 234.349 361.6 234.696L361.28 233.664C361.701 233.115 362.168 232.731 362.68 232.512C363.192 232.293 363.685 232.184 364.16 232.184C364.661 232.184 365.109 232.285 365.504 232.488C365.899 232.685 366.208 233.008 366.432 233.456C366.661 233.904 366.776 234.504 366.776 235.256V241H365.496ZM371.251 241.144C370.435 241.144 369.792 240.933 369.323 240.512C368.859 240.091 368.627 239.512 368.627 238.776C368.627 238.019 368.875 237.429 369.371 237.008C369.872 236.581 370.675 236.315 371.779 236.208L374.107 235.96L374.227 236.808L371.859 237.064C371.171 237.133 370.675 237.301 370.371 237.568C370.072 237.829 369.923 238.192 369.923 238.656C369.923 239.141 370.061 239.512 370.339 239.768C370.616 240.024 371.029 240.152 371.579 240.152C371.957 240.152 372.339 240.072 372.723 239.912C373.107 239.747 373.451 239.472 373.755 239.088V235.256C373.755 234.723 373.672 234.312 373.507 234.024C373.341 233.731 373.093 233.525 372.763 233.408C372.432 233.291 372.016 233.232 371.515 233.232C371.189 233.232 370.819 233.261 370.403 233.32C369.992 233.379 369.581 233.477 369.171 233.616V232.568C369.544 232.445 369.955 232.352 370.403 232.288C370.856 232.219 371.283 232.184 371.683 232.184C372.419 232.184 373.032 232.28 373.523 232.472C374.019 232.664 374.389 232.989 374.635 233.448C374.885 233.901 375.011 234.523 375.011 235.312V241H373.939L373.843 240.032H373.763C373.48 240.389 373.117 240.664 372.675 240.856C372.237 241.048 371.763 241.144 371.251 241.144ZM377.333 241V232.32H378.613V241H377.333ZM377.973 230.432C377.685 230.432 377.464 230.363 377.309 230.224C377.16 230.08 377.085 229.883 377.085 229.632C377.085 229.376 377.16 229.176 377.309 229.032C377.464 228.888 377.685 228.816 377.973 228.816C378.261 228.816 378.48 228.888 378.629 229.032C378.784 229.176 378.861 229.376 378.861 229.632C378.861 229.883 378.784 230.08 378.629 230.224C378.48 230.363 378.261 230.432 377.973 230.432ZM381.036 241V228.072H382.316V241H381.036Z" fill="#303030"/>
<rect x="394.5" y="227.5" width="15" height="15" rx="3.5" stroke="black"/>
<path d="M406.467 231.8C406.2 231.533 405.8 231.533 405.533 231.8L400.533 236.8L398.467 234.733C398.2 234.467 397.8 234.467 397.533 234.733C397.267 235 397.267 235.4 397.533 235.667L400.067 238.2C400.2 238.333 400.333 238.4 400.533 238.4C400.733 238.4 400.867 238.333 401 238.2L406.467 232.733C406.733 232.467 406.733 232.067 406.467 231.8Z" fill="black"/>
</svg>
