<svg width="24" height="25" viewBox="0 0 24 25" fill="none" xmlns="http://www.w3.org/2000/svg">
<g clip-path="url(#clip0_2144_886)">
<path d="M12 3.28345C11.2916 3.2824 10.6056 3.53211 10.0636 3.98837C9.52155 4.44463 9.15852 5.07799 9.03874 5.77627C8.91897 6.47456 9.05019 7.19269 9.40916 7.8035C9.76814 8.4143 10.3317 8.87835 11 9.11345V11.2835H8.00003C7.20438 11.2835 6.44132 11.5995 5.87871 12.1621C5.3161 12.7247 5.00003 13.4878 5.00003 14.2835V15.4535C4.33254 15.6894 3.76994 16.1536 3.41167 16.7643C3.0534 17.3749 2.92254 18.0925 3.04222 18.7902C3.16189 19.488 3.5244 20.121 4.06566 20.5773C4.60692 21.0337 5.29208 21.2839 6.00003 21.2839C6.70798 21.2839 7.39314 21.0337 7.9344 20.5773C8.47566 20.121 8.83817 19.488 8.95784 18.7902C9.07752 18.0925 8.94666 17.3749 8.58839 16.7643C8.23012 16.1536 7.66752 15.6894 7.00003 15.4535V14.2835C7.00003 14.0182 7.10539 13.7639 7.29292 13.5763C7.48046 13.3888 7.73481 13.2835 8.00003 13.2835H16C16.2652 13.2835 16.5196 13.3888 16.7071 13.5763C16.8947 13.7639 17 14.0182 17 14.2835V15.4535C16.3325 15.6894 15.7699 16.1536 15.4117 16.7643C15.0534 17.3749 14.9225 18.0925 15.0422 18.7902C15.1619 19.488 15.5244 20.121 16.0657 20.5773C16.6069 21.0337 17.2921 21.2839 18 21.2839C18.708 21.2839 19.3931 21.0337 19.9344 20.5773C20.4757 20.121 20.8382 19.488 20.9578 18.7902C21.0775 18.0925 20.9467 17.3749 20.5884 16.7643C20.2301 16.1536 19.6675 15.6894 19 15.4535V14.2835C19 13.4878 18.684 12.7247 18.1214 12.1621C17.5587 11.5995 16.7957 11.2835 16 11.2835H13V9.11345C13.6672 8.8773 14.2294 8.41297 14.5874 7.80248C14.9454 7.192 15.0761 6.47463 14.9565 5.77711C14.8368 5.07959 14.4745 4.44679 13.9335 3.9905C13.3926 3.5342 12.7077 3.28378 12 3.28345Z" fill="#1E1E1E"/>
</g>
<defs>
<clipPath id="clip0_2144_886">
<rect width="24" height="24" fill="white" transform="translate(0 0.283447)"/>
</clipPath>
</defs>
</svg>
