<svg width="24" height="25" viewBox="0 0 24 25" fill="none" xmlns="http://www.w3.org/2000/svg">
<path d="M16.5 2.53345V4.03345H19.1722L16.641 6.58795C15.7362 5.90477 14.6337 5.53463 13.5 5.53345C12.0975 5.53345 10.788 6.08845 9.79646 7.0807C9.30636 7.56488 8.91726 8.14155 8.65172 8.77725C8.38618 9.41295 8.24948 10.095 8.24955 10.784C8.24962 11.4729 8.38646 12.155 8.65213 12.7906C8.9178 13.4263 9.30702 14.0029 9.79721 14.4869C10.4497 15.1394 11.2267 15.6082 12.0937 15.8459C12.1792 15.7807 12.2752 15.7124 12.3517 15.6359C12.6661 15.3162 12.892 14.9203 13.0072 14.4869C12.1907 14.3861 11.4315 14.0146 10.851 13.4317C10.143 12.7244 9.74996 11.7854 9.74996 10.7834C9.74996 9.78145 10.1437 8.84395 10.8525 8.13595C11.559 7.4257 12.498 7.03345 13.5 7.03345C14.502 7.03345 15.4402 7.4272 16.1475 8.13595C16.4974 8.48224 16.7751 8.8946 16.9643 9.34909C17.1536 9.80357 17.2507 10.2911 17.25 10.7834C17.25 11.4322 17.0662 12.0359 16.758 12.5879C16.83 12.9749 16.875 13.3814 16.875 13.7834C16.875 14.1569 16.8435 14.5259 16.7812 14.8859C16.9312 14.7637 17.0647 14.6249 17.2035 14.4869C18.195 13.4939 18.75 12.1859 18.75 10.7834C18.75 9.63595 18.372 8.54545 17.6955 7.64245L20.25 5.11195V7.78345H21.75V2.53345H16.5ZM11.9062 8.72095C11.8207 8.7862 11.7247 8.85445 11.6482 8.93095C11.3242 9.25645 11.1127 9.65095 10.9927 10.0807C11.8102 10.1857 12.5565 10.5427 13.149 11.1352C13.8577 11.8424 14.2515 12.7814 14.2515 13.7827C14.2515 14.7839 13.8577 15.7222 13.149 16.4302C12.441 17.1412 11.502 17.5334 10.5 17.5334C9.49796 17.5334 8.55971 17.1397 7.85246 16.4309C7.50225 16.0849 7.22441 15.6725 7.03513 15.218C6.84585 14.7635 6.74891 14.2758 6.74996 13.7834C6.74996 13.1347 6.93371 12.5309 7.24196 11.9789C7.16666 11.5848 7.12749 11.1847 7.12496 10.7834C7.12496 10.4099 7.15646 10.0409 7.21871 9.68095C7.06871 9.8032 6.93596 9.94195 6.79646 10.0807C5.80646 11.0714 5.24996 12.3809 5.24996 13.7834C5.24996 14.9309 5.62796 16.0214 6.30446 16.9244L5.03996 18.1897L3.53996 16.6897L2.45996 17.7442L3.95996 19.2442L2.45996 20.7442L3.53996 21.8242L5.03996 20.3242L6.53996 21.8242L7.59371 20.7442L6.09371 19.2442L7.35971 17.9797C8.26358 18.6639 9.36632 19.034 10.5 19.0334C11.9025 19.0334 13.212 18.4784 14.2035 17.4862C15.195 16.4954 15.75 15.1859 15.75 13.7834C15.75 12.3809 15.195 11.0729 14.2027 10.0799C13.5502 9.42745 12.7732 8.9587 11.9062 8.72095Z" fill="#1E1E1E"/>
</svg>
