<svg width="33" height="32" viewBox="0 0 33 32" fill="none" xmlns="http://www.w3.org/2000/svg">
<path d="M17.8708 2.66669C19.3708 2.67069 20.1321 2.67869 20.7894 2.69735L21.0481 2.70669C21.3468 2.71735 21.6414 2.73069 21.9974 2.74669C23.4161 2.81335 24.3841 3.03735 25.2334 3.36669C26.1135 3.70535 26.8548 4.16402 27.5961 4.90402C28.2741 5.57055 28.7987 6.37681 29.1335 7.26669C29.4628 8.11602 29.6868 9.08402 29.7535 10.504C29.7695 10.8587 29.7828 11.1534 29.7935 11.4534L29.8015 11.712C29.8215 12.368 29.8295 13.1294 29.8321 14.6294L29.8335 15.624V17.3707C29.8367 18.3432 29.8265 19.3158 29.8028 20.288L29.7948 20.5467C29.7841 20.8467 29.7708 21.1414 29.7548 21.496C29.6881 22.916 29.4615 23.8827 29.1335 24.7334C28.7997 25.6237 28.2749 26.4302 27.5961 27.096C26.9294 27.7738 26.1232 28.2984 25.2334 28.6334C24.3841 28.9627 23.4161 29.1867 21.9974 29.2534C21.6811 29.2683 21.3646 29.2816 21.0481 29.2934L20.7894 29.3014C20.1321 29.32 19.3708 29.3294 17.8708 29.332L16.8761 29.3334H15.1308C14.1578 29.3367 13.1848 29.3265 12.2121 29.3027L11.9535 29.2947C11.6369 29.2827 11.3205 29.2689 11.0041 29.2534C9.58545 29.1867 8.61745 28.9627 7.76678 28.6334C6.87701 28.2992 6.07107 27.7745 5.40545 27.096C4.72685 26.4297 4.20175 25.6234 3.86678 24.7334C3.53745 23.884 3.31345 22.916 3.24678 21.496C3.23193 21.1796 3.2186 20.8632 3.20678 20.5467L3.20012 20.288C3.17555 19.3158 3.16444 18.3432 3.16678 17.3707V14.6294C3.16306 13.6568 3.17284 12.6843 3.19612 11.712L3.20545 11.4534C3.21612 11.1534 3.22945 10.8587 3.24545 10.504C3.31212 9.08402 3.53612 8.11735 3.86545 7.26669C4.20027 6.37589 4.72641 5.56939 5.40678 4.90402C6.07224 4.22599 6.87764 3.70134 7.76678 3.36669C8.61745 3.03735 9.58412 2.81335 11.0041 2.74669C11.3588 2.73069 11.6548 2.71735 11.9535 2.70669L12.2121 2.69869C13.1844 2.675 14.1569 2.66477 15.1295 2.66802L17.8708 2.66669ZM16.5001 9.33335C14.732 9.33335 13.0363 10.0357 11.7861 11.286C10.5358 12.5362 9.83345 14.2319 9.83345 16C9.83345 17.7681 10.5358 19.4638 11.7861 20.7141C13.0363 21.9643 14.732 22.6667 16.5001 22.6667C18.2682 22.6667 19.9639 21.9643 21.2142 20.7141C22.4644 19.4638 23.1668 17.7681 23.1668 16C23.1668 14.2319 22.4644 12.5362 21.2142 11.286C19.9639 10.0357 18.2682 9.33335 16.5001 9.33335ZM16.5001 12C17.0254 11.9999 17.5456 12.1033 18.0309 12.3042C18.5162 12.5052 18.9572 12.7998 19.3287 13.1711C19.7002 13.5425 19.9949 13.9834 20.196 14.4687C20.3971 14.9539 20.5007 15.4741 20.5008 15.9994C20.5009 16.5246 20.3975 17.0448 20.1966 17.5301C19.9956 18.0155 19.7011 18.4565 19.3297 18.828C18.9583 19.1995 18.5174 19.4942 18.0321 19.6953C17.5469 19.8964 17.0267 19.9999 16.5015 20C15.4406 20 14.4232 19.5786 13.673 18.8284C12.9229 18.0783 12.5015 17.0609 12.5015 16C12.5015 14.9392 12.9229 13.9217 13.673 13.1716C14.4232 12.4214 15.4406 12 16.5015 12M23.5014 7.33335C23.0594 7.33335 22.6355 7.50895 22.3229 7.82151C22.0104 8.13407 21.8348 8.55799 21.8348 9.00002C21.8348 9.44205 22.0104 9.86597 22.3229 10.1785C22.6355 10.4911 23.0594 10.6667 23.5014 10.6667C23.9435 10.6667 24.3674 10.4911 24.68 10.1785C24.9925 9.86597 25.1681 9.44205 25.1681 9.00002C25.1681 8.55799 24.9925 8.13407 24.68 7.82151C24.3674 7.50895 23.9435 7.33335 23.5014 7.33335Z" fill="black"/>
</svg>
