<svg width="33" height="32" viewBox="0 0 33 32" fill="none" xmlns="http://www.w3.org/2000/svg">
<g clip-path="url(#clip0_2144_585)">
<path fill-rule="evenodd" clip-rule="evenodd" d="M24.5 4C25.5609 4 26.5783 4.42143 27.3284 5.17157C28.0786 5.92172 28.5 6.93913 28.5 8V24C28.5 25.0609 28.0786 26.0783 27.3284 26.8284C26.5783 27.5786 25.5609 28 24.5 28H8.5C7.43913 28 6.42172 27.5786 5.67157 26.8284C4.92143 26.0783 4.5 25.0609 4.5 24V8C4.5 6.93913 4.92143 5.92172 5.67157 5.17157C6.42172 4.42143 7.43913 4 8.5 4H24.5ZM11.1667 13.3333C10.813 13.3333 10.4739 13.4738 10.2239 13.7239C9.97381 13.9739 9.83333 14.313 9.83333 14.6667V21.3333C9.83333 21.687 9.97381 22.0261 10.2239 22.2761C10.4739 22.5262 10.813 22.6667 11.1667 22.6667C11.5203 22.6667 11.8594 22.5262 12.1095 22.2761C12.3595 22.0261 12.5 21.687 12.5 21.3333V14.6667C12.5 14.313 12.3595 13.9739 12.1095 13.7239C11.8594 13.4738 11.5203 13.3333 11.1667 13.3333ZM15.1667 12C14.813 12 14.4739 12.1405 14.2239 12.3905C13.9738 12.6406 13.8333 12.9797 13.8333 13.3333V21.3333C13.8333 21.687 13.9738 22.0261 14.2239 22.2761C14.4739 22.5262 14.813 22.6667 15.1667 22.6667C15.5203 22.6667 15.8594 22.5262 16.1095 22.2761C16.3595 22.0261 16.5 21.687 16.5 21.3333V16.4533C16.9067 15.9947 17.5933 15.456 18.3573 15.1293C18.8013 14.94 19.4693 14.8627 19.9333 15.0093C20.0873 15.0484 20.2244 15.1363 20.324 15.26C20.3933 15.3533 20.5 15.5613 20.5 16V21.3333C20.5 21.687 20.6405 22.0261 20.8905 22.2761C21.1406 22.5262 21.4797 22.6667 21.8333 22.6667C22.187 22.6667 22.5261 22.5262 22.7761 22.2761C23.0262 22.0261 23.1667 21.687 23.1667 21.3333V16C23.1667 15.1067 22.94 14.312 22.468 13.6747C22.0337 13.0967 21.4258 12.673 20.7333 12.4653C19.5307 12.088 18.1987 12.2973 17.3093 12.6787C17.0244 12.8006 16.747 12.9395 16.4787 13.0947C16.4228 12.7875 16.2608 12.5096 16.0211 12.3096C15.7813 12.1095 15.4789 12 15.1667 12ZM11.1667 9.33333C10.813 9.33333 10.4739 9.47381 10.2239 9.72386C9.97381 9.97391 9.83333 10.313 9.83333 10.6667C9.83333 11.0203 9.97381 11.3594 10.2239 11.6095C10.4739 11.8595 10.813 12 11.1667 12C11.5203 12 11.8594 11.8595 12.1095 11.6095C12.3595 11.3594 12.5 11.0203 12.5 10.6667C12.5 10.313 12.3595 9.97391 12.1095 9.72386C11.8594 9.47381 11.5203 9.33333 11.1667 9.33333Z" fill="black"/>
</g>
<defs>
<clipPath id="clip0_2144_585">
<rect width="32" height="32" fill="white" transform="translate(0.5)"/>
</clipPath>
</defs>
</svg>
