<svg width="49" height="49" viewBox="0 0 49 49" fill="none" xmlns="http://www.w3.org/2000/svg">
<path d="M30.5126 2.55225C27.7217 2.55225 25.4697 2.55225 23.6996 2.79112C21.8621 3.03612 20.3145 3.56695 19.0854 4.794C18.0156 5.86587 17.4725 7.18275 17.1887 8.73033C16.9131 10.235 16.86 12.0746 16.8477 14.2837C16.8456 14.6898 17.0048 15.0801 17.2905 15.3688C17.5761 15.6575 17.9647 15.8209 18.3708 15.8231C18.7769 15.8252 19.1673 15.666 19.456 15.3804C19.7447 15.0947 19.9081 14.7061 19.9102 14.3C19.9225 12.0685 19.9797 10.4862 20.2002 9.28362C20.4145 8.12804 20.7555 7.45633 21.2516 6.9602C21.8172 6.39466 22.6114 6.02716 24.1099 5.82504C25.6514 5.61883 27.6951 5.61475 30.6249 5.61475H32.6666C35.5984 5.61475 37.6421 5.61883 39.1836 5.82504C40.6822 6.02716 41.4743 6.3967 42.0419 6.9602C42.6054 7.52575 42.9729 8.31791 43.175 9.81854C43.3833 11.358 43.3853 13.4037 43.3853 16.3335V32.6668C43.3853 35.5966 43.3833 37.6403 43.175 39.1838C42.9729 40.6824 42.6054 41.4746 42.0399 42.0401C41.4743 42.6057 40.6822 42.9732 39.1836 43.1753C37.6421 43.3815 35.5984 43.3856 32.6666 43.3856H30.6249C27.6951 43.3856 25.6514 43.3815 24.1079 43.1753C22.6114 42.9732 21.8172 42.6036 21.2516 42.0401C20.7555 41.542 20.4145 40.8723 20.2002 39.7167C19.9797 38.5142 19.9225 36.9319 19.9102 34.7003C19.9092 34.4992 19.8685 34.3003 19.7906 34.115C19.7126 33.9296 19.5989 33.7614 19.456 33.62C19.313 33.4785 19.1436 33.3666 18.9574 33.2907C18.7712 33.2147 18.5719 33.1762 18.3708 33.1772C18.1697 33.1783 17.9708 33.219 17.7855 33.2969C17.6001 33.3749 17.4319 33.4886 17.2905 33.6315C17.149 33.7745 17.0371 33.9439 16.9612 34.1301C16.8852 34.3162 16.8467 34.5156 16.8477 34.7167C16.86 36.9257 16.9131 38.7653 17.1887 40.27C17.4745 41.8176 18.0156 43.1345 19.0874 44.2063C20.3145 45.4354 21.8641 45.9622 23.7016 46.2112C25.4697 46.4481 27.7217 46.4481 30.5126 46.4481H32.7789C35.5719 46.4481 37.8218 46.4481 39.5919 46.2112C41.4294 45.9622 42.977 45.4354 44.2061 44.2063C45.4352 42.9772 45.9619 41.4297 46.211 39.5922C46.4478 37.822 46.4478 35.5701 46.4478 32.7791V16.2212C46.4478 13.4302 46.4478 11.1783 46.211 9.40816C45.9639 7.57066 45.4352 6.02308 44.2061 4.794C42.977 3.56491 41.4294 3.03816 39.5919 2.79112C37.8218 2.55225 35.5698 2.55225 32.7789 2.55225H30.5126Z" fill="white"/>
<path d="M30.6249 22.969C31.031 22.969 31.4205 23.1303 31.7077 23.4175C31.9948 23.7047 32.1561 24.0941 32.1561 24.5003C32.1561 24.9064 31.9948 25.2958 31.7077 25.583C31.4205 25.8702 31.031 26.0315 30.6249 26.0315H8.22169L12.2254 29.4615C12.534 29.7257 12.7251 30.1018 12.7565 30.5069C12.7879 30.912 12.6571 31.3129 12.3928 31.6216C12.1286 31.9302 11.7525 32.1213 11.3474 32.1527C10.9424 32.1841 10.5414 32.0532 10.2327 31.789L3.0869 25.664C2.9188 25.5202 2.78384 25.3418 2.6913 25.1409C2.59876 24.94 2.55084 24.7214 2.55084 24.5003C2.55084 24.2791 2.59876 24.0605 2.6913 23.8596C2.78384 23.6587 2.9188 23.4803 3.0869 23.3365L10.2327 17.2115C10.3856 17.0807 10.5627 16.9812 10.7539 16.9188C10.9452 16.8564 11.1469 16.8323 11.3474 16.8478C11.548 16.8634 11.7436 16.9183 11.9229 17.0094C12.1023 17.1005 12.262 17.2261 12.3928 17.3789C12.5237 17.5317 12.6231 17.7088 12.6855 17.9001C12.7479 18.0914 12.772 18.2931 12.7565 18.4936C12.7409 18.6942 12.686 18.8898 12.5949 19.0691C12.5038 19.2485 12.3782 19.4082 12.2254 19.539L8.22373 22.969H30.6249Z" fill="white"/>
</svg>
