<svg width="25" height="25" viewBox="0 0 25 25" fill="none" xmlns="http://www.w3.org/2000/svg">
<path d="M4.5 10.996V15.5C4.5 16.2956 4.81607 17.0587 5.37868 17.6213C5.94129 18.1839 6.70435 18.5 7.5 18.5H17.5C18.2956 18.5 19.0587 18.1839 19.6213 17.6213C20.1839 17.0587 20.5 16.2956 20.5 15.5V10.996L12.91 14.412C12.7811 14.47 12.6413 14.4999 12.5 14.4999C12.3587 14.4999 12.2189 14.47 12.09 14.412L4.5 10.996ZM4.574 8.836L12.5 12.404L20.426 8.836C20.2754 8.17255 19.9038 7.57998 19.3721 7.15552C18.8405 6.73106 18.1803 6.49991 17.5 6.5H7.5C6.81968 6.49991 6.15952 6.73106 5.62786 7.15552C5.09619 7.57998 4.72458 8.17255 4.574 8.836Z" fill="#303030"/>
</svg>
