<svg width="77" height="77" viewBox="0 0 77 77" fill="none" xmlns="http://www.w3.org/2000/svg">
<path d="M19.25 22.4583H35.2916C36.1425 22.4583 36.9586 22.7963 37.5603 23.398C38.1619 23.9996 38.5 24.8157 38.5 25.6666C38.5 26.5175 38.1619 27.3335 37.5603 27.9352C36.9586 28.5369 36.1425 28.8749 35.2916 28.8749H19.25C18.3991 28.8749 17.583 28.5369 16.9813 27.9352C16.3796 27.3335 16.0416 26.5175 16.0416 25.6666C16.0416 24.8157 16.3796 23.9996 16.9813 23.398C17.583 22.7963 18.3991 22.4583 19.25 22.4583ZM41.7083 48.1249H57.75C58.6009 48.1249 59.4169 48.4629 60.0186 49.0646C60.6203 49.6663 60.9583 50.4823 60.9583 51.3333C60.9583 52.1842 60.6203 53.0002 60.0186 53.6019C59.4169 54.2036 58.6009 54.5416 57.75 54.5416H41.7083C40.8574 54.5416 40.0413 54.2036 39.4397 53.6019C38.838 53.0002 38.5 52.1842 38.5 51.3333C38.5 50.4823 38.838 49.6663 39.4397 49.0646C40.0413 48.4629 40.8574 48.1249 41.7083 48.1249ZM19.25 35.2916H57.75C58.6009 35.2916 59.4169 35.6296 60.0186 36.2313C60.6203 36.833 60.9583 37.649 60.9583 38.4999C60.9583 39.3508 60.6203 40.1669 60.0186 40.7686C59.4169 41.3702 58.6009 41.7083 57.75 41.7083H19.25C18.3991 41.7083 17.583 41.3702 16.9813 40.7686C16.3796 40.1669 16.0416 39.3508 16.0416 38.4999C16.0416 37.649 16.3796 36.833 16.9813 36.2313C17.583 35.6296 18.3991 35.2916 19.25 35.2916Z" fill="#303030"/>
</svg>
