<svg width="6" height="36" viewBox="0 0 6 36" fill="none" xmlns="http://www.w3.org/2000/svg">
<path d="M3 5C4.10457 5 5 4.10457 5 3C5 1.89543 4.10457 1 3 1C1.89543 1 1 1.89543 1 3C1 4.10457 1.89543 5 3 5Z" stroke="black" stroke-width="1.5" stroke-linecap="round" stroke-linejoin="round"/>
<path d="M3 19.667C4.10457 19.667 5 18.7716 5 17.667C5 16.5624 4.10457 15.667 3 15.667C1.89543 15.667 1 16.5624 1 17.667C1 18.7716 1.89543 19.667 3 19.667Z" stroke="black" stroke-width="1.5" stroke-linecap="round" stroke-linejoin="round"/>
<path d="M3 34.333C4.10457 34.333 5 33.4376 5 32.333C5 31.2284 4.10457 30.333 3 30.333C1.89543 30.333 1 31.2284 1 32.333C1 33.4376 1.89543 34.333 3 34.333Z" stroke="black" stroke-width="1.5" stroke-linecap="round" stroke-linejoin="round"/>
</svg>
