<svg width="24" height="25" viewBox="0 0 24 25" fill="none" xmlns="http://www.w3.org/2000/svg">
<g clip-path="url(#clip0_2235_61)">
<path d="M6 17C6 17.3978 6.15804 17.7794 6.43934 18.0607C6.72064 18.342 7.10218 18.5 7.5 18.5C7.89782 18.5 8.27936 18.342 8.56066 18.0607C8.84196 17.7794 9 17.3978 9 17V15.5H7.5C7.10218 15.5 6.72064 15.658 6.43934 15.9393C6.15804 16.2206 6 16.6022 6 17Z" fill="#303030"/>
<path d="M0 0.5V24.5H24V0.5H0ZM16.5 14C17.0933 14 17.6734 14.1759 18.1667 14.5056C18.6601 14.8352 19.0446 15.3038 19.2716 15.8519C19.4987 16.4001 19.5581 17.0033 19.4424 17.5853C19.3266 18.1672 19.0409 18.7018 18.6213 19.1213C18.2018 19.5409 17.6672 19.8266 17.0853 19.9424C16.5033 20.0581 15.9001 19.9987 15.3519 19.7716C14.8038 19.5446 14.3352 19.1601 14.0056 18.6667C13.6759 18.1734 13.5 17.5933 13.5 17V15.5H10.5V17C10.5 17.5933 10.3241 18.1734 9.99441 18.6667C9.66476 19.1601 9.19623 19.5446 8.64805 19.7716C8.09987 19.9987 7.49667 20.0581 6.91473 19.9424C6.33279 19.8266 5.79824 19.5409 5.37868 19.1213C4.95912 18.7018 4.6734 18.1672 4.55764 17.5853C4.44189 17.0033 4.5013 16.4001 4.72836 15.8519C4.95542 15.3038 5.33994 14.8352 5.83329 14.5056C6.32664 14.1759 6.90666 14 7.5 14H9V11H7.5C6.90666 11 6.32664 10.8241 5.83329 10.4944C5.33994 10.1648 4.95542 9.69623 4.72836 9.14805C4.5013 8.59987 4.44189 7.99667 4.55764 7.41473C4.6734 6.83279 4.95912 6.29824 5.37868 5.87868C5.79824 5.45912 6.33279 5.1734 6.91473 5.05764C7.49667 4.94189 8.09987 5.0013 8.64805 5.22836C9.19623 5.45542 9.66476 5.83994 9.99441 6.33329C10.3241 6.82664 10.5 7.40666 10.5 8V9.5H13.5V8C13.5 7.40666 13.6759 6.82664 14.0056 6.33329C14.3352 5.83994 14.8038 5.45542 15.3519 5.22836C15.9001 5.0013 16.5033 4.94189 17.0853 5.05764C17.6672 5.1734 18.2018 5.45912 18.6213 5.87868C19.0409 6.29824 19.3266 6.83279 19.4424 7.41473C19.5581 7.99667 19.4987 8.59987 19.2716 9.14805C19.0446 9.69623 18.6601 10.1648 18.1667 10.4944C17.6734 10.8241 17.0933 11 16.5 11H15V14H16.5Z" fill="#303030"/>
<path d="M18 8C18 7.60218 17.842 7.22064 17.5607 6.93934C17.2794 6.65804 16.8978 6.5 16.5 6.5C16.1022 6.5 15.7206 6.65804 15.4393 6.93934C15.158 7.22064 15 7.60218 15 8V9.5H16.5C16.8978 9.5 17.2794 9.34196 17.5607 9.06066C17.842 8.77936 18 8.39782 18 8ZM7.5 6.5C7.10218 6.5 6.72064 6.65804 6.43934 6.93934C6.15804 7.22064 6 7.60218 6 8C6 8.39782 6.15804 8.77936 6.43934 9.06066C6.72064 9.34196 7.10218 9.5 7.5 9.5H9V8C9 7.60218 8.84196 7.22064 8.56066 6.93934C8.27936 6.65804 7.89782 6.5 7.5 6.5ZM10.5 11H13.5V14H10.5V11ZM15 17C15 17.2967 15.088 17.5867 15.2528 17.8334C15.4176 18.08 15.6519 18.2723 15.926 18.3858C16.2001 18.4994 16.5017 18.5291 16.7926 18.4712C17.0836 18.4133 17.3509 18.2704 17.5607 18.0607C17.7704 17.8509 17.9133 17.5836 17.9712 17.2926C18.0291 17.0017 17.9994 16.7001 17.8858 16.426C17.7723 16.1519 17.58 15.9176 17.3334 15.7528C17.0867 15.588 16.7967 15.5 16.5 15.5H15V17Z" fill="#303030"/>
</g>
<defs>
<clipPath id="clip0_2235_61">
<rect y="0.5" width="24" height="24" rx="3" fill="white"/>
</clipPath>
</defs>
</svg>
