<svg width="622" height="424" viewBox="0 0 622 424" fill="none" xmlns="http://www.w3.org/2000/svg">
<rect width="622" height="424" rx="12" fill="#F8F3F1"/>
<rect x="187" y="101" width="248" height="225" rx="8" fill="white"/>
<path d="M311 136.333H303C301.939 136.333 300.922 135.912 300.172 135.162C299.421 134.412 299 133.394 299 132.333V121.667C299 120.606 299.421 119.588 300.172 118.838C300.922 118.088 301.939 117.667 303 117.667H319C320.061 117.667 321.078 118.088 321.828 118.838C322.579 119.588 323 120.606 323 121.667V127.667M299 124.333H323M316.333 136.333H324.333M324.333 136.333L320.333 132.333M324.333 136.333L320.333 140.333M304.34 131H304.347M309.667 131H312.333" stroke="#303030" stroke-width="2" stroke-linecap="round" stroke-linejoin="round"/>
<path d="M280.188 219.608C278.353 219.608 276.423 219.448 274.396 219.128C272.369 218.808 270.439 218.339 268.604 217.72V213.272C269.927 213.699 271.26 214.061 272.604 214.36C273.969 214.637 275.292 214.851 276.572 215C277.852 215.128 279.068 215.192 280.22 215.192C282.865 215.192 285.052 214.861 286.78 214.2C288.508 213.539 289.788 212.568 290.62 211.288C291.452 209.987 291.868 208.387 291.868 206.488C291.868 204.077 291.153 202.243 289.724 200.984C288.316 199.704 285.905 198.616 282.492 197.72L279.932 197.048C275.9 196.024 272.881 194.477 270.876 192.408C268.871 190.317 267.868 187.565 267.868 184.152C267.868 180.077 269.287 176.877 272.124 174.552C274.961 172.205 279.207 171.032 284.86 171.032C286.631 171.032 288.401 171.16 290.172 171.416C291.964 171.651 293.596 171.992 295.068 172.44V176.92C293.447 176.408 291.783 176.035 290.076 175.8C288.369 175.565 286.684 175.448 285.02 175.448C282.268 175.448 280.007 175.779 278.236 176.44C276.487 177.101 275.196 178.061 274.364 179.32C273.532 180.579 273.116 182.093 273.116 183.864C273.116 186.189 273.767 187.992 275.068 189.272C276.369 190.552 278.62 191.619 281.82 192.472L284.412 193.112C287.313 193.859 289.703 194.819 291.58 195.992C293.457 197.144 294.855 198.563 295.772 200.248C296.689 201.912 297.148 203.885 297.148 206.168C297.148 209.027 296.487 211.459 295.164 213.464C293.841 215.448 291.911 216.973 289.372 218.04C286.855 219.085 283.793 219.608 280.188 219.608ZM280.124 226.68V218.328L284.924 218.104V226.68H280.124ZM280.124 172.12V163.96H284.924V172.12H280.124ZM311.98 219V175.448L313.868 176.664L300.3 186.392V181.272L313.868 171.48H317.164V219H311.98ZM336.827 219.608C334.822 219.608 332.838 219.437 330.875 219.096C328.912 218.776 327.078 218.328 325.371 217.752V213.528C327.163 214.104 329.04 214.563 331.003 214.904C332.966 215.224 334.875 215.384 336.731 215.384C340.784 215.384 343.803 214.573 345.787 212.952C347.792 211.331 348.795 208.92 348.795 205.72C348.795 203.651 348.294 201.933 347.291 200.568C346.31 199.181 344.678 198.104 342.395 197.336C340.112 196.568 337.008 196.077 333.083 195.864L327.131 195.512L328.731 171.64H351.835V175.864H331.195L333.531 173.752L332.187 193.624L328.891 191.384L334.843 191.704C339.302 191.981 342.928 192.664 345.723 193.752C348.518 194.84 350.555 196.365 351.835 198.328C353.136 200.291 353.787 202.723 353.787 205.624C353.787 210.168 352.347 213.635 349.467 216.024C346.608 218.413 342.395 219.608 336.827 219.608Z" fill="#303030"/>
<rect x="214" y="243" width="194" height="73" rx="12" fill="#1E1E1E"/>
<path d="M239.69 288V273.42C240.303 273.3 240.917 273.207 241.53 273.14C242.15 273.073 242.803 273.04 243.49 273.04C245.443 273.04 246.92 273.447 247.92 274.26C248.927 275.067 249.43 276.343 249.43 278.09C249.43 279.73 248.93 280.983 247.93 281.85C246.937 282.717 245.38 283.15 243.26 283.15C242.913 283.15 242.587 283.143 242.28 283.13C241.98 283.11 241.657 283.087 241.31 283.06V288H239.69ZM243.29 281.83C244.883 281.83 246.037 281.527 246.75 280.92C247.463 280.307 247.82 279.373 247.82 278.12C247.82 276.807 247.47 275.853 246.77 275.26C246.077 274.66 245.02 274.36 243.6 274.36C243.167 274.36 242.763 274.377 242.39 274.41C242.023 274.437 241.663 274.48 241.31 274.54V281.71C241.637 281.757 241.957 281.79 242.27 281.81C242.59 281.823 242.93 281.83 243.29 281.83ZM254.212 288.18C253.192 288.18 252.388 287.917 251.802 287.39C251.222 286.863 250.932 286.14 250.932 285.22C250.932 284.273 251.242 283.537 251.862 283.01C252.488 282.477 253.492 282.143 254.872 282.01L257.782 281.7L257.932 282.76L254.972 283.08C254.112 283.167 253.492 283.377 253.112 283.71C252.738 284.037 252.552 284.49 252.552 285.07C252.552 285.677 252.725 286.14 253.072 286.46C253.418 286.78 253.935 286.94 254.622 286.94C255.095 286.94 255.572 286.84 256.052 286.64C256.532 286.433 256.962 286.09 257.342 285.61V280.82C257.342 280.153 257.238 279.64 257.032 279.28C256.825 278.913 256.515 278.657 256.102 278.51C255.688 278.363 255.168 278.29 254.542 278.29C254.135 278.29 253.672 278.327 253.152 278.4C252.638 278.473 252.125 278.597 251.612 278.77V277.46C252.078 277.307 252.592 277.19 253.152 277.11C253.718 277.023 254.252 276.98 254.752 276.98C255.672 276.98 256.438 277.1 257.052 277.34C257.672 277.58 258.135 277.987 258.442 278.56C258.755 279.127 258.912 279.903 258.912 280.89V288H257.572L257.452 286.79H257.352C256.998 287.237 256.545 287.58 255.992 287.82C255.445 288.06 254.852 288.18 254.212 288.18ZM263.355 292.4L265.025 288L265.535 286.85L269.115 277.15H270.725L264.955 292.4H263.355ZM264.565 288L260.455 277.15H262.165L266.095 288H264.565ZM277.463 288V273.2H279.133L287.643 286.14H287.243V273.2H288.773V288H287.103L278.603 275.06H279.003V288H277.463ZM296.021 288.19C295.088 288.19 294.274 287.997 293.581 287.61C292.888 287.217 292.351 286.61 291.971 285.79C291.591 284.963 291.401 283.893 291.401 282.58C291.401 281.28 291.588 280.217 291.961 279.39C292.341 278.563 292.878 277.957 293.571 277.57C294.264 277.177 295.081 276.98 296.021 276.98C296.961 276.98 297.778 277.177 298.471 277.57C299.164 277.957 299.698 278.563 300.071 279.39C300.451 280.21 300.641 281.273 300.641 282.58C300.641 283.88 300.448 284.943 300.061 285.77C299.681 286.597 299.144 287.207 298.451 287.6C297.764 287.993 296.954 288.19 296.021 288.19ZM296.021 286.89C296.634 286.89 297.164 286.757 297.611 286.49C298.058 286.223 298.401 285.78 298.641 285.16C298.888 284.533 299.011 283.683 299.011 282.61C299.011 281.517 298.888 280.657 298.641 280.03C298.401 279.397 298.054 278.95 297.601 278.69C297.154 278.423 296.628 278.29 296.021 278.29C295.408 278.29 294.878 278.423 294.431 278.69C293.984 278.95 293.638 279.393 293.391 280.02C293.151 280.64 293.031 281.487 293.031 282.56C293.031 283.647 293.151 284.507 293.391 285.14C293.638 285.767 293.984 286.217 294.431 286.49C294.878 286.757 295.408 286.89 296.021 286.89ZM305.12 288L301.94 277.15H303.51L306.22 286.61H306.06L308.89 277.15H310.78L313.61 286.61H313.43L316.15 277.15H317.66L314.5 288H312.61L309.73 278.43H309.91L307.01 288H305.12Z" fill="white"/>
<path d="M368.58 284.09L373.17 279.5L368.58 274.91L370 273.5L376 279.5L370 285.5L368.58 284.09Z" fill="#E3E3E3"/>
<rect x="11" y="12" width="87" height="36" rx="4" fill="white"/>
<rect x="108" y="12" width="491" height="36" rx="4" fill="white"/>
</svg>
