<svg width="32" height="33" viewBox="0 0 32 33" fill="none" xmlns="http://www.w3.org/2000/svg">
<path d="M28 28.2834H4C2.897 28.2834 2 27.3864 2 26.2834V20.2834H4V26.2834H28V20.2834H30V26.2834C30 27.3864 29.103 28.2834 28 28.2834Z" fill="#303030"/>
<path d="M17 17.2834V21.2834C17 21.5487 17.1054 21.803 17.2929 21.9906C17.4804 22.1781 17.7348 22.2834 18 22.2834H22C22.2652 22.2834 22.5196 22.1781 22.7071 21.9906C22.8946 21.803 23 21.5487 23 21.2834V17.2834C23 17.0182 22.8946 16.7639 22.7071 16.5763C22.5196 16.3888 22.2652 16.2834 22 16.2834H18C17.7348 16.2834 17.4804 16.3888 17.2929 16.5763C17.1054 16.7639 17 17.0182 17 17.2834ZM19 18.2834H21V20.2834H19V18.2834ZM9 17.2834V21.2834C9 21.5487 9.10536 21.803 9.29289 21.9906C9.48043 22.1781 9.73478 22.2834 10 22.2834H14C14.2652 22.2834 14.5196 22.1781 14.7071 21.9906C14.8946 21.803 15 21.5487 15 21.2834V17.2834C15 17.0182 14.8946 16.7639 14.7071 16.5763C14.5196 16.3888 14.2652 16.2834 14 16.2834H10C9.73478 16.2834 9.48043 16.3888 9.29289 16.5763C9.10536 16.7639 9 17.0182 9 17.2834ZM11 18.2834H13V20.2834H11V18.2834ZM17 9.28345V13.2834C17 13.5487 17.1054 13.803 17.2929 13.9906C17.4804 14.1781 17.7348 14.2834 18 14.2834H22C22.2652 14.2834 22.5196 14.1781 22.7071 13.9906C22.8946 13.803 23 13.5487 23 13.2834V9.28345C23 9.01823 22.8946 8.76388 22.7071 8.57634C22.5196 8.3888 22.2652 8.28345 22 8.28345H18C17.7348 8.28345 17.4804 8.3888 17.2929 8.57634C17.1054 8.76388 17 9.01823 17 9.28345ZM19 10.2834H21V12.2834H19V10.2834ZM5 5.28345V13.2834C5 13.5487 5.10536 13.803 5.29289 13.9906C5.48043 14.1781 5.73478 14.2834 6 14.2834H14C14.2652 14.2834 14.5196 14.1781 14.7071 13.9906C14.8946 13.803 15 13.5487 15 13.2834V5.28345C15 5.01823 14.8946 4.76388 14.7071 4.57634C14.5196 4.3888 14.2652 4.28345 14 4.28345H6C5.73478 4.28345 5.48043 4.3888 5.29289 4.57634C5.10536 4.76388 5 5.01823 5 5.28345ZM7 6.28345H13V12.2834H7V6.28345Z" fill="#303030"/>
</svg>
