<svg width="29" height="31" viewBox="0 0 29 31" fill="none" xmlns="http://www.w3.org/2000/svg">
<path d="M20.9858 0H27.9362L28.0888 0.0213671L28.2399 0.0641018L28.3315 0.103784C28.4536 0.155676 28.565 0.233513 28.6658 0.332718L28.7268 0.399873L28.794 0.486868L28.8764 0.624228L28.9359 0.761589L28.9649 0.859268L28.9863 0.956947L29 1.10194V8.01882C28.9999 8.30884 28.8897 8.58801 28.6917 8.79993C28.4937 9.01185 28.2227 9.14071 27.9333 9.16047C27.644 9.18024 27.3579 9.08944 27.133 8.90642C26.908 8.7234 26.7609 8.4618 26.7213 8.17449L26.7107 8.01882V3.90562L16.8817 13.7345C16.6879 13.9284 16.431 14.0463 16.1576 14.0667C15.8842 14.0872 15.6126 14.0088 15.3921 13.846L15.2639 13.7361L10.6394 9.29474L1.95519 17.9775C1.75094 18.1823 1.47673 18.3022 1.18769 18.313C0.898647 18.3239 0.616205 18.225 0.397153 18.0361C0.1781 17.8472 0.0386797 17.5823 0.00692296 17.2948C-0.0248338 17.0074 0.0534281 16.7185 0.225973 16.4863L0.337388 16.3581L9.83054 6.86499C10.0245 6.67136 10.2816 6.55377 10.5549 6.5336C10.8283 6.51344 11.0998 6.59203 11.3201 6.7551L11.4483 6.86499L16.0728 11.3063L25.0898 2.28935H20.9842C20.7079 2.28897 20.441 2.18863 20.2329 2.00685C20.0247 1.82507 19.8894 1.57413 19.8518 1.30035L19.8411 1.14467C19.8411 0.868063 19.9413 0.600813 20.1231 0.392347C20.3049 0.183881 20.556 0.0483026 20.8301 0.0106836L20.9858 0ZM1.14629 22.8935C1.44988 22.8935 1.74103 23.0141 1.9557 23.2287C2.17036 23.4434 2.29096 23.7345 2.29096 24.0381V29.3799C2.29096 29.6835 2.17036 29.9747 1.9557 30.1893C1.74103 30.404 1.44988 30.5246 1.14629 30.5246C0.842704 30.5246 0.551552 30.404 0.336884 30.1893C0.122216 29.9747 0.0016172 29.6835 0.0016172 29.3799V24.0381C0.0016172 23.7345 0.122216 23.4434 0.336884 23.2287C0.551552 23.0141 0.842704 22.8935 1.14629 22.8935ZM9.92212 17.9332C9.92212 17.6296 9.80152 17.3385 9.58685 17.1238C9.37218 16.9091 9.08103 16.7885 8.77744 16.7885C8.47386 16.7885 8.1827 16.9091 7.96804 17.1238C7.75337 17.3385 7.63277 17.6296 7.63277 17.9332V29.3799C7.63277 29.6835 7.75337 29.9747 7.96804 30.1893C8.1827 30.404 8.47386 30.5246 8.77744 30.5246C9.08103 30.5246 9.37218 30.404 9.58685 30.1893C9.80152 29.9747 9.92212 29.6835 9.92212 29.3799V17.9332ZM16.4086 19.841C16.7122 19.841 17.0033 19.9616 17.218 20.1763C17.4327 20.3909 17.5533 20.6821 17.5533 20.9857V29.3799C17.5533 29.6835 17.4327 29.9747 17.218 30.1893C17.0033 30.404 16.7122 30.5246 16.4086 30.5246C16.105 30.5246 15.8139 30.404 15.5992 30.1893C15.3845 29.9747 15.2639 29.6835 15.2639 29.3799V20.9857C15.2639 20.6821 15.3845 20.3909 15.5992 20.1763C15.8139 19.9616 16.105 19.841 16.4086 19.841ZM25.1844 13.3545C25.1844 13.0509 25.0638 12.7598 24.8492 12.5451C24.6345 12.3304 24.3433 12.2098 24.0397 12.2098C23.7362 12.2098 23.445 12.3304 23.2303 12.5451C23.0157 12.7598 22.8951 13.0509 22.8951 13.3545V29.3799C22.8951 29.6835 23.0157 29.9747 23.2303 30.1893C23.445 30.404 23.7362 30.5246 24.0397 30.5246C24.3433 30.5246 24.6345 30.404 24.8492 30.1893C25.0638 29.9747 25.1844 29.6835 25.1844 29.3799V13.3545Z" fill="#FE7125"/>
</svg>
