<svg width="127" height="127" viewBox="0 0 127 127" fill="none" xmlns="http://www.w3.org/2000/svg">
<g clip-path="url(#clip0_2289_277)">
<path d="M127 0V3.96875C127 11.4928 126.339 18.5208 125.016 25.0527C123.693 31.5846 121.646 37.7651 118.876 43.5942C116.107 49.4233 112.675 54.9631 108.583 60.2134C104.49 65.4637 99.6528 70.6107 94.0718 75.6543L82.2275 111.125H63.5V97.0483C57.7949 100.397 52.0278 103.622 46.1987 106.722L20.2778 80.8013C23.3784 74.9722 26.603 69.2051 29.9517 63.5H15.875V44.7725L51.3457 32.9902C56.348 27.4092 61.4743 22.5516 66.7246 18.4175C71.9749 14.2834 77.5353 10.8521 83.4058 8.12354C89.2762 5.39502 95.4567 3.3693 101.947 2.04639C108.438 0.72347 115.466 0.0413411 123.031 0H127ZM34.6025 55.5625C35.8014 53.6608 37.0003 51.7798 38.1992 49.9194C39.3981 48.0591 40.6797 46.2194 42.0439 44.4004L23.8125 50.4775V55.5625H34.6025ZM47.687 96.8623C49.7954 95.6634 51.9038 94.4852 54.0122 93.3276C56.1206 92.1701 58.229 90.9712 60.3374 89.731L37.269 66.6626C36.0701 68.771 34.8919 70.8794 33.7344 72.9878C32.5768 75.0962 31.3779 77.2253 30.1377 79.375L47.687 96.8623ZM82.5996 84.9561C80.7806 86.279 78.9409 87.5399 77.0806 88.7388C75.2202 89.9377 73.3392 91.1572 71.4375 92.3975V103.188H76.5225L82.5996 84.9561ZM93.9478 64.6782C98.0405 60.5854 101.596 56.4307 104.614 52.2139C107.632 47.9971 110.195 43.5736 112.303 38.9434C114.412 34.3132 115.983 29.4556 117.016 24.3706C118.05 19.2856 118.711 13.8286 119 7.99951C113.213 8.20622 107.776 8.847 102.691 9.92188C97.6064 10.9967 92.7489 12.5884 88.1187 14.6968C83.4884 16.8052 79.0443 19.3477 74.7861 22.3242C70.528 25.3008 66.3319 28.8561 62.1978 32.9902C58.105 37.0003 54.3636 41.2171 50.9736 45.6406C47.5837 50.0641 44.4004 54.7357 41.4238 59.6553L67.3447 85.5762C72.223 82.5996 76.8739 79.4163 81.2974 76.0264C85.7209 72.6364 89.9377 68.8537 93.9478 64.6782ZM79.375 63.5C77.1839 63.5 75.1375 63.0866 73.2358 62.2598C71.3341 61.4329 69.6392 60.2961 68.1509 58.8491C66.6626 57.4022 65.5257 55.7279 64.7402 53.8262C63.9548 51.9245 63.5413 49.8574 63.5 47.625C63.5 45.4339 63.9134 43.3875 64.7402 41.4858C65.5671 39.5841 66.7039 37.8892 68.1509 36.4009C69.5978 34.9126 71.2721 33.7757 73.1738 32.9902C75.0755 32.2048 77.1426 31.7913 79.375 31.75C81.5661 31.75 83.6125 32.1634 85.5142 32.9902C87.4159 33.8171 89.1108 34.9539 90.5991 36.4009C92.0874 37.8478 93.2243 39.5221 94.0098 41.4238C94.7952 43.3255 95.2087 45.3926 95.25 47.625C95.25 49.8161 94.8366 51.8625 94.0098 53.7642C93.1829 55.6659 92.0461 57.3608 90.5991 58.8491C89.1522 60.3374 87.4779 61.4743 85.5762 62.2598C83.6745 63.0452 81.6074 63.4587 79.375 63.5ZM79.375 39.6875C78.2588 39.6875 77.2253 39.8942 76.2744 40.3076C75.3236 40.721 74.4967 41.2791 73.7939 41.9819C73.0911 42.6847 72.5124 43.5322 72.0576 44.5244C71.6029 45.5166 71.3962 46.5501 71.4375 47.625C71.4375 48.7412 71.6442 49.7747 72.0576 50.7256C72.471 51.6764 73.0291 52.5033 73.7319 53.2061C74.4347 53.9089 75.2822 54.4876 76.2744 54.9424C77.2666 55.3971 78.3001 55.6038 79.375 55.5625C80.4912 55.5625 81.5247 55.3558 82.4756 54.9424C83.4264 54.529 84.2533 53.9709 84.9561 53.2681C85.6589 52.5653 86.2376 51.7178 86.6924 50.7256C87.1471 49.7334 87.3538 48.6999 87.3125 47.625C87.3125 46.5088 87.1058 45.4753 86.6924 44.5244C86.279 43.5736 85.7209 42.7467 85.0181 42.0439C84.3153 41.3411 83.4678 40.7624 82.4756 40.3076C81.4834 39.8529 80.4499 39.6462 79.375 39.6875ZM15.875 95.25C18.0661 95.25 20.1125 95.6634 22.0142 96.4902C23.9159 97.3171 25.6108 98.4539 27.0991 99.9009C28.5874 101.348 29.7243 103.022 30.5098 104.924C31.2952 106.826 31.7087 108.893 31.75 111.125C31.75 113.316 31.3366 115.362 30.5098 117.264C29.6829 119.166 28.5461 120.861 27.0991 122.349C25.6522 123.837 23.9779 124.974 22.0762 125.76C20.1745 126.545 18.1074 126.959 15.875 127H0V111.125C0 108.934 0.413411 106.888 1.24023 104.986C2.06706 103.084 3.20394 101.389 4.65088 99.9009C6.09782 98.4126 7.77214 97.2757 9.67383 96.4902C11.5755 95.7048 13.6426 95.2913 15.875 95.25ZM15.875 119.062C16.9912 119.062 18.0247 118.856 18.9756 118.442C19.9264 118.029 20.7533 117.471 21.4561 116.768C22.1589 116.065 22.7376 115.218 23.1924 114.226C23.6471 113.233 23.8538 112.2 23.8125 111.125C23.8125 110.009 23.6058 108.975 23.1924 108.024C22.779 107.074 22.2209 106.247 21.5181 105.544C20.8153 104.841 19.9678 104.262 18.9756 103.808C17.9834 103.353 16.9499 103.146 15.875 103.188C14.7588 103.188 13.7253 103.394 12.7744 103.808C11.8236 104.221 10.9967 104.779 10.2939 105.482C9.59115 106.185 9.01237 107.032 8.55762 108.024C8.10286 109.017 7.89616 110.05 7.9375 111.125V119.062H15.875Z" fill="#FFA602"/>
</g>
<defs>
<clipPath id="clip0_2289_277">
<rect width="127" height="127" fill="white"/>
</clipPath>
</defs>
</svg>
