<svg width="32" height="33" viewBox="0 0 32 33" fill="none" xmlns="http://www.w3.org/2000/svg">
<path fill-rule="evenodd" clip-rule="evenodd" d="M24.28 7.20349C23.7147 7.30483 22.9427 7.56082 21.8174 7.93682L13.164 10.8208C12.0667 11.1862 11.2707 11.4515 10.6907 11.6782C10.088 11.9128 9.82405 12.0688 9.71338 12.1742C9.51899 12.3608 9.36432 12.5848 9.25867 12.8327C9.15302 13.0806 9.09856 13.3473 9.09856 13.6168C9.09856 13.8863 9.15302 14.153 9.25867 14.4009C9.36432 14.6488 9.51899 14.8728 9.71338 15.0595C9.82405 15.1662 10.088 15.3208 10.6907 15.5555C11.5254 15.8659 12.3669 16.1576 13.2147 16.4302C13.604 16.5595 13.8734 16.6488 14.1174 16.7782C14.7084 17.0912 15.1915 17.5749 15.504 18.1662C15.6347 18.4102 15.724 18.6795 15.8534 19.0688L15.8707 19.1208C16.236 20.2168 16.5014 21.0142 16.728 21.5928C16.9627 22.1955 17.1187 22.4595 17.2254 22.5702C17.412 22.7643 17.6359 22.9188 17.8837 23.0244C18.1315 23.1299 18.3981 23.1843 18.6674 23.1843C18.9367 23.1843 19.2033 23.1299 19.451 23.0244C19.6988 22.9188 19.9228 22.7643 20.1094 22.5702C20.216 22.4595 20.3707 22.1955 20.6054 21.5928C20.832 21.0142 21.0987 20.2168 21.4627 19.1208L24.348 10.4662C24.7227 9.34083 24.9787 8.56749 25.0787 8.00349C25.18 7.43282 25.08 7.30349 25.0294 7.25416C24.98 7.20349 24.8507 7.10216 24.28 7.20349ZM24.0467 5.89282C24.7267 5.77282 25.44 5.77949 25.9734 6.31149C26.5054 6.84482 26.512 7.55816 26.392 8.23816C26.272 8.91149 25.984 9.77682 25.632 10.8342L25.612 10.8875L22.728 19.5435L22.7214 19.5635C22.4491 20.4086 22.1579 21.2474 21.848 22.0795C21.6147 22.6742 21.3814 23.1728 21.0707 23.4955C20.7597 23.8193 20.3864 24.077 19.9733 24.253C19.5602 24.429 19.1158 24.5197 18.6667 24.5197C18.2177 24.5197 17.7733 24.429 17.3602 24.253C16.9471 24.077 16.5738 23.8193 16.2627 23.4955C15.9534 23.1715 15.7187 22.6742 15.4854 22.0795C15.2454 21.4648 14.9694 20.6355 14.612 19.5635L14.6054 19.5435C14.452 19.0835 14.3974 18.9262 14.3254 18.7915C14.138 18.4365 13.8481 18.1461 13.4934 17.9582C13.36 17.8875 13.2014 17.8328 12.7414 17.6782L12.7214 17.6728C11.8765 17.4 11.0376 17.1088 10.2054 16.7995C9.61071 16.5662 9.11205 16.3328 8.78938 16.0222C8.46553 15.7111 8.20788 15.3378 8.03187 14.9247C7.85586 14.5116 7.76514 14.0672 7.76514 13.6182C7.76514 13.1691 7.85586 12.7247 8.03187 12.3116C8.20788 11.8985 8.46553 11.5252 8.78938 11.2142C9.11338 10.9035 9.61071 10.6702 10.2054 10.4368C10.82 10.1968 11.6494 9.92083 12.7214 9.56349L12.7414 9.55682L21.396 6.67282L21.4507 6.65416C22.508 6.30216 23.3734 6.01416 24.0467 5.89416" fill="#303030"/>
</svg>
