<svg width="24" height="25" viewBox="0 0 24 25" fill="none" xmlns="http://www.w3.org/2000/svg">
<path d="M3.77802 4.155C3.59702 4.515 3.50802 4.961 3.33002 5.851L2.73202 8.841C2.64727 9.24867 2.64662 9.66936 2.73009 10.0773C2.81357 10.4852 2.97943 10.8718 3.21751 11.2135C3.45559 11.5551 3.76089 11.8445 4.11471 12.064C4.46853 12.2835 4.86344 12.4285 5.27525 12.4901C5.68706 12.5518 6.1071 12.5287 6.50968 12.4223C6.91225 12.3159 7.28888 12.1285 7.61651 11.8715C7.94414 11.6145 8.21588 11.2934 8.41508 10.9277C8.61428 10.5621 8.73676 10.1596 8.77502 9.745L8.84502 9.055C8.80713 9.49384 8.86119 9.93576 9.00375 10.3525C9.14631 10.7693 9.37425 11.1517 9.67298 11.4754C9.97172 11.7991 10.3347 12.0569 10.7387 12.2324C11.1427 12.4078 11.5789 12.4971 12.0194 12.4944C12.4598 12.4918 12.8949 12.3973 13.2968 12.217C13.6986 12.0366 14.0585 11.7745 14.3533 11.4472C14.6481 11.1199 14.8714 10.7348 15.0089 10.3163C15.1465 9.89789 15.1952 9.45535 15.152 9.017L15.225 9.745C15.2633 10.1596 15.3858 10.5621 15.585 10.9277C15.7842 11.2934 16.0559 11.6145 16.3835 11.8715C16.7112 12.1285 17.0878 12.3159 17.4904 12.4223C17.8929 12.5287 18.313 12.5518 18.7248 12.4901C19.1366 12.4285 19.5315 12.2835 19.8853 12.064C20.2392 11.8445 20.5445 11.5551 20.7825 11.2135C21.0206 10.8718 21.1865 10.4852 21.27 10.0773C21.3534 9.66936 21.3528 9.24867 21.268 8.841L20.67 5.851C20.492 4.961 20.403 4.516 20.222 4.155C20.0334 3.77904 19.7679 3.44694 19.4426 3.18025C19.1174 2.91356 18.7397 2.71826 18.334 2.607C17.944 2.5 17.49 2.5 16.582 2.5H7.41802C6.51002 2.5 6.05602 2.5 5.66602 2.607C5.26039 2.71826 4.88269 2.91356 4.55743 3.18025C4.23217 3.44694 3.96662 3.77904 3.77802 4.155ZM18.269 14C19.0504 14.002 19.8189 13.8018 20.5 13.419V14.5C20.5 18.271 20.5 20.157 19.328 21.328C18.385 22.272 16.98 22.455 14.5 22.491V19C14.5 18.065 14.5 17.598 14.299 17.25C14.1674 17.022 13.978 16.8326 13.75 16.701C13.402 16.5 12.935 16.5 12 16.5C11.065 16.5 10.598 16.5 10.25 16.701C10.022 16.8326 9.83267 17.022 9.70102 17.25C9.50002 17.598 9.50002 18.065 9.50002 19V22.491C7.02002 22.455 5.61502 22.271 4.67202 21.328C3.50002 20.157 3.50002 18.271 3.50002 14.5V13.419C4.18144 13.802 4.95036 14.0021 5.73202 14C6.88768 14.0008 8.00033 13.5618 8.84402 12.772C9.7039 13.5641 10.8309 14.0026 12 14C13.1691 14.0025 14.2961 13.564 15.156 12.772C15.9997 13.5618 17.1134 14.0008 18.269 14Z" fill="#696969"/>
</svg>
