<svg width="32" height="32" viewBox="0 0 32 32" fill="none" xmlns="http://www.w3.org/2000/svg">
<path d="M5.03745 4.87341C4.79611 5.35341 4.67745 5.94808 4.44011 7.13475L3.64278 11.1214C3.52978 11.665 3.5289 12.2259 3.64021 12.7698C3.75151 13.3137 3.97265 13.8292 4.2901 14.2847C4.60754 14.7402 5.0146 15.1261 5.48636 15.4188C5.95813 15.7115 6.48466 15.9048 7.03374 15.9869C7.58282 16.0691 8.14289 16.0383 8.67965 15.8965C9.21642 15.7546 9.71859 15.5048 10.1554 15.1621C10.5923 14.8195 10.9546 14.3913 11.2202 13.9037C11.4858 13.4162 11.6491 12.8796 11.7001 12.3267L11.7934 11.4067C11.7429 11.9919 11.815 12.5811 12.0051 13.1368C12.1952 13.6925 12.4991 14.2024 12.8974 14.634C13.2957 15.0655 13.7797 15.4093 14.3184 15.6432C14.857 15.8772 15.4386 15.9962 16.0259 15.9926C16.6132 15.9891 17.1933 15.8631 17.7291 15.6227C18.2649 15.3823 18.7447 15.0327 19.1378 14.5964C19.5309 14.16 19.8286 13.6465 20.012 13.0885C20.1954 12.5306 20.2604 11.9405 20.2028 11.3561L20.3001 12.3267C20.3511 12.8796 20.5144 13.4162 20.78 13.9037C21.0456 14.3913 21.408 14.8195 21.8448 15.1621C22.2816 15.5048 22.7838 15.7546 23.3206 15.8965C23.8573 16.0383 24.4174 16.0691 24.9665 15.9869C25.5156 15.9048 26.0421 15.7115 26.5139 15.4188C26.9856 15.1261 27.3927 14.7402 27.7101 14.2847C28.0276 13.8292 28.2487 13.3137 28.36 12.7698C28.4713 12.2259 28.4704 11.665 28.3574 11.1214L27.5601 7.13475C27.3228 5.94808 27.2041 5.35475 26.9628 4.87341C26.7113 4.37213 26.3573 3.92933 25.9236 3.57375C25.4899 3.21817 24.9863 2.95776 24.4454 2.80941C23.9254 2.66675 23.3201 2.66675 22.1094 2.66675H9.89078C8.68011 2.66675 8.07478 2.66675 7.55478 2.80941C7.01393 2.95776 6.51033 3.21817 6.07665 3.57375C5.64297 3.92933 5.28891 4.37213 5.03745 4.87341ZM24.3588 18.0001C25.4005 18.0027 26.4253 17.7358 27.3334 17.2254V18.6667C27.3334 23.6947 27.3334 26.2094 25.7708 27.7707C24.5134 29.0294 22.6401 29.2734 19.3334 29.3214V24.6667C19.3334 23.4201 19.3334 22.7974 19.0654 22.3334C18.8899 22.0294 18.6375 21.7769 18.3334 21.6014C17.8694 21.3334 17.2468 21.3334 16.0001 21.3334C14.7534 21.3334 14.1308 21.3334 13.6668 21.6014C13.3628 21.7769 13.1103 22.0294 12.9348 22.3334C12.6668 22.7974 12.6668 23.4201 12.6668 24.6667V29.3214C9.36011 29.2734 7.48678 29.0281 6.22944 27.7707C4.66678 26.2094 4.66678 23.6947 4.66678 18.6667V17.2254C5.57533 17.7361 6.60056 18.0029 7.64278 18.0001C9.18366 18.0012 10.6672 17.4158 11.7921 16.3627C12.9386 17.4188 14.4413 18.0035 16.0001 18.0001C17.5589 18.0034 19.0615 17.4187 20.2081 16.3627C21.333 17.4158 22.8179 18.0012 24.3588 18.0001Z" fill="white"/>
</svg>
