<svg width="32" height="32" viewBox="0 0 32 32" fill="none" xmlns="http://www.w3.org/2000/svg">
<path d="M5.03738 4.87341C4.79605 5.35341 4.67738 5.94808 4.44005 7.13475L3.64272 11.1214C3.52972 11.665 3.52884 12.2259 3.64015 12.7698C3.75145 13.3137 3.97259 13.8292 4.29003 14.2847C4.60748 14.7402 5.01454 15.1261 5.4863 15.4188C5.95807 15.7115 6.4846 15.9048 7.03368 15.9869C7.58276 16.0691 8.14283 16.0383 8.67959 15.8965C9.21636 15.7546 9.71853 15.5048 10.1554 15.1621C10.5922 14.8195 10.9545 14.3913 11.2201 13.9037C11.4857 13.4162 11.649 12.8796 11.7 12.3267L11.7934 11.4067C11.7429 11.9919 11.8149 12.5811 12.005 13.1368C12.1951 13.6925 12.499 14.2024 12.8973 14.634C13.2956 15.0655 13.7796 15.4093 14.3183 15.6432C14.857 15.8772 15.4385 15.9962 16.0258 15.9926C16.6131 15.9891 17.1932 15.8631 17.729 15.6227C18.2649 15.3823 18.7447 15.0327 19.1377 14.5964C19.5308 14.16 19.8286 13.6465 20.0119 13.0885C20.1953 12.5306 20.2603 11.9405 20.2027 11.3561L20.3001 12.3267C20.3511 12.8796 20.5144 13.4162 20.78 13.9037C21.0456 14.3913 21.4079 14.8195 21.8447 15.1621C22.2816 15.5048 22.7837 15.7546 23.3205 15.8965C23.8573 16.0383 24.4173 16.0691 24.9664 15.9869C25.5155 15.9048 26.042 15.7115 26.5138 15.4188C26.9856 15.1261 27.3926 14.7402 27.7101 14.2847C28.0275 13.8292 28.2487 13.3137 28.36 12.7698C28.4713 12.2259 28.4704 11.665 28.3574 11.1214L27.56 7.13475C27.3227 5.94808 27.2041 5.35475 26.9627 4.87341C26.7113 4.37213 26.3572 3.92933 25.9235 3.57375C25.4898 3.21817 24.9862 2.95776 24.4454 2.80941C23.9254 2.66675 23.3201 2.66675 22.1094 2.66675H9.89072C8.68005 2.66675 8.07472 2.66675 7.55472 2.80941C7.01387 2.95776 6.51027 3.21817 6.07659 3.57375C5.64291 3.92933 5.28885 4.37213 5.03738 4.87341ZM24.3587 18.0001C25.4005 18.0027 26.4252 17.7358 27.3334 17.2254V18.6667C27.3334 23.6947 27.3334 26.2094 25.7707 27.7707C24.5134 29.0294 22.64 29.2734 19.3334 29.3214V24.6667C19.3334 23.4201 19.3334 22.7974 19.0654 22.3334C18.8899 22.0294 18.6374 21.7769 18.3334 21.6014C17.8694 21.3334 17.2467 21.3334 16.0001 21.3334C14.7534 21.3334 14.1307 21.3334 13.6667 21.6014C13.3627 21.7769 13.1102 22.0294 12.9347 22.3334C12.6667 22.7974 12.6667 23.4201 12.6667 24.6667V29.3214C9.36005 29.2734 7.48672 29.0281 6.22938 27.7707C4.66672 26.2094 4.66672 23.6947 4.66672 18.6667V17.2254C5.57527 17.7361 6.6005 18.0029 7.64272 18.0001C9.1836 18.0012 10.6671 17.4158 11.7921 16.3627C12.9386 17.4188 14.4413 18.0035 16.0001 18.0001C17.5588 18.0034 19.0615 17.4187 20.208 16.3627C21.333 17.4158 22.8178 18.0012 24.3587 18.0001Z" fill="#FE7125"/>
</svg>
