<svg width="622" height="424" viewBox="0 0 622 424" fill="none" xmlns="http://www.w3.org/2000/svg">
<rect width="622" height="424" rx="12" fill="#F8F3F1"/>
<rect x="11" y="12" width="87" height="36" rx="4" fill="white"/>
<rect x="73" y="155" width="476" height="73" rx="12" fill="#1E1E1E"/>
<path d="M113.23 192.847L109.002 188.62L104.774 192.847L105.835 193.908L108.252 191.491V202.75H109.752V191.491L112.169 193.908L113.23 192.847Z" fill="#EEEEEE"/>
<path d="M115.75 187.068V187C115.75 183.278 112.722 180.25 109 180.25C105.278 180.25 102.25 183.278 102.25 187V187.117C101.139 187.326 100.115 187.86 99.3065 188.65C98.8145 189.128 98.4233 189.699 98.1559 190.33C97.8886 190.962 97.7505 191.64 97.75 192.326C97.75 193.785 98.3494 195.174 99.438 196.239C100.502 197.279 101.938 197.875 103.378 197.875H106.375V196.375H103.378C101.179 196.375 99.25 194.483 99.25 192.326C99.25 190.345 100.921 188.674 103.053 188.522L103.75 188.472V187C103.75 185.608 104.303 184.272 105.288 183.288C106.272 182.303 107.608 181.75 109 181.75C110.392 181.75 111.728 182.303 112.712 183.288C113.697 184.272 114.25 185.608 114.25 187V188.502L114.991 188.511C117.169 188.539 118.75 190.143 118.75 192.326C118.75 194.596 117.079 196.375 114.945 196.375H111.625V197.875H114.945C115.66 197.877 116.367 197.731 117.022 197.445C117.677 197.159 118.265 196.739 118.749 196.213C119.717 195.172 120.25 193.792 120.25 192.326C120.25 189.587 118.362 187.44 115.75 187.068Z" fill="#EEEEEE"/>
<path d="M144.1 200.19C142.84 200.19 141.807 199.983 141 199.57C140.193 199.157 139.593 198.523 139.2 197.67C138.813 196.81 138.62 195.72 138.62 194.4V185.2H140.24V194.58C140.24 196.04 140.55 197.107 141.17 197.78C141.797 198.453 142.773 198.79 144.1 198.79C145.44 198.79 146.42 198.453 147.04 197.78C147.66 197.107 147.97 196.04 147.97 194.58V185.2H149.55V194.4C149.55 195.72 149.357 196.81 148.97 197.67C148.59 198.523 147.997 199.157 147.19 199.57C146.39 199.983 145.36 200.19 144.1 200.19ZM152.67 204.4V189.15H154.03L154.15 190.34H154.25C154.577 189.94 154.993 189.613 155.5 189.36C156.013 189.107 156.593 188.98 157.24 188.98C158.02 188.98 158.733 189.153 159.38 189.5C160.027 189.847 160.543 190.417 160.93 191.21C161.317 191.997 161.51 193.05 161.51 194.37C161.51 195.677 161.303 196.76 160.89 197.62C160.477 198.48 159.863 199.123 159.05 199.55C158.237 199.977 157.233 200.19 156.04 200.19C155.733 200.19 155.427 200.173 155.12 200.14C154.813 200.113 154.53 200.083 154.27 200.05V204.4H152.67ZM156.06 198.88C157.327 198.88 158.28 198.54 158.92 197.86C159.56 197.18 159.88 196.063 159.88 194.51C159.88 193.43 159.75 192.59 159.49 191.99C159.23 191.39 158.873 190.97 158.42 190.73C157.967 190.483 157.453 190.36 156.88 190.36C156.393 190.36 155.917 190.467 155.45 190.68C154.983 190.887 154.59 191.227 154.27 191.7V198.69C154.51 198.743 154.79 198.79 155.11 198.83C155.437 198.863 155.753 198.88 156.06 198.88ZM163.959 200V183.84H165.559V200H163.959ZM172.638 200.19C171.705 200.19 170.891 199.997 170.198 199.61C169.505 199.217 168.968 198.61 168.588 197.79C168.208 196.963 168.018 195.893 168.018 194.58C168.018 193.28 168.205 192.217 168.578 191.39C168.958 190.563 169.495 189.957 170.188 189.57C170.881 189.177 171.698 188.98 172.638 188.98C173.578 188.98 174.395 189.177 175.088 189.57C175.781 189.957 176.315 190.563 176.688 191.39C177.068 192.21 177.258 193.273 177.258 194.58C177.258 195.88 177.065 196.943 176.678 197.77C176.298 198.597 175.761 199.207 175.068 199.6C174.381 199.993 173.571 200.19 172.638 200.19ZM172.638 198.89C173.251 198.89 173.781 198.757 174.228 198.49C174.675 198.223 175.018 197.78 175.258 197.16C175.505 196.533 175.628 195.683 175.628 194.61C175.628 193.517 175.505 192.657 175.258 192.03C175.018 191.397 174.671 190.95 174.218 190.69C173.771 190.423 173.245 190.29 172.638 190.29C172.025 190.29 171.495 190.423 171.048 190.69C170.601 190.95 170.255 191.393 170.008 192.02C169.768 192.64 169.648 193.487 169.648 194.56C169.648 195.647 169.768 196.507 170.008 197.14C170.255 197.767 170.601 198.217 171.048 198.49C171.495 198.757 172.025 198.89 172.638 198.89ZM182.391 200.18C181.371 200.18 180.568 199.917 179.981 199.39C179.401 198.863 179.111 198.14 179.111 197.22C179.111 196.273 179.421 195.537 180.041 195.01C180.668 194.477 181.671 194.143 183.051 194.01L185.961 193.7L186.111 194.76L183.151 195.08C182.291 195.167 181.671 195.377 181.291 195.71C180.918 196.037 180.731 196.49 180.731 197.07C180.731 197.677 180.905 198.14 181.251 198.46C181.598 198.78 182.115 198.94 182.801 198.94C183.275 198.94 183.751 198.84 184.231 198.64C184.711 198.433 185.141 198.09 185.521 197.61V192.82C185.521 192.153 185.418 191.64 185.211 191.28C185.005 190.913 184.695 190.657 184.281 190.51C183.868 190.363 183.348 190.29 182.721 190.29C182.315 190.29 181.851 190.327 181.331 190.4C180.818 190.473 180.305 190.597 179.791 190.77V189.46C180.258 189.307 180.771 189.19 181.331 189.11C181.898 189.023 182.431 188.98 182.931 188.98C183.851 188.98 184.618 189.1 185.231 189.34C185.851 189.58 186.315 189.987 186.621 190.56C186.935 191.127 187.091 191.903 187.091 192.89V200H185.751L185.631 198.79H185.531C185.178 199.237 184.725 199.58 184.171 199.82C183.625 200.06 183.031 200.18 182.391 200.18ZM193.694 200.19C192.908 200.19 192.191 200.013 191.544 199.66C190.898 199.3 190.381 198.727 189.994 197.94C189.614 197.153 189.424 196.107 189.424 194.8C189.424 193.493 189.631 192.41 190.044 191.55C190.464 190.69 191.081 190.047 191.894 189.62C192.708 189.193 193.708 188.98 194.894 188.98C195.201 188.98 195.508 188.993 195.814 189.02C196.121 189.047 196.404 189.08 196.664 189.12V183.84H198.264V200H196.904L196.794 198.83H196.684C196.364 199.223 195.948 199.55 195.434 199.81C194.928 200.063 194.348 200.19 193.694 200.19ZM194.054 198.81C194.541 198.81 195.018 198.703 195.484 198.49C195.951 198.277 196.344 197.937 196.664 197.47V190.48C196.424 190.42 196.144 190.373 195.824 190.34C195.504 190.307 195.188 190.29 194.874 190.29C193.614 190.29 192.661 190.63 192.014 191.31C191.374 191.99 191.054 193.107 191.054 194.66C191.054 195.727 191.181 196.563 191.434 197.17C191.694 197.77 192.048 198.193 192.494 198.44C192.948 198.687 193.468 198.81 194.054 198.81ZM208.856 200.18C207.836 200.18 207.033 199.917 206.446 199.39C205.866 198.863 205.576 198.14 205.576 197.22C205.576 196.273 205.886 195.537 206.506 195.01C207.133 194.477 208.136 194.143 209.516 194.01L212.426 193.7L212.576 194.76L209.616 195.08C208.756 195.167 208.136 195.377 207.756 195.71C207.383 196.037 207.196 196.49 207.196 197.07C207.196 197.677 207.37 198.14 207.716 198.46C208.063 198.78 208.58 198.94 209.266 198.94C209.74 198.94 210.216 198.84 210.696 198.64C211.176 198.433 211.606 198.09 211.986 197.61V192.82C211.986 192.153 211.883 191.64 211.676 191.28C211.47 190.913 211.16 190.657 210.746 190.51C210.333 190.363 209.813 190.29 209.186 190.29C208.78 190.29 208.316 190.327 207.796 190.4C207.283 190.473 206.77 190.597 206.256 190.77V189.46C206.723 189.307 207.236 189.19 207.796 189.11C208.363 189.023 208.896 188.98 209.396 188.98C210.316 188.98 211.083 189.1 211.696 189.34C212.316 189.58 212.78 189.987 213.086 190.56C213.4 191.127 213.556 191.903 213.556 192.89V200H212.216L212.096 198.79H211.996C211.643 199.237 211.19 199.58 210.636 199.82C210.09 200.06 209.496 200.18 208.856 200.18ZM220.159 200.19C219.373 200.19 218.656 200.013 218.009 199.66C217.363 199.3 216.846 198.727 216.459 197.94C216.079 197.153 215.889 196.107 215.889 194.8C215.889 193.493 216.096 192.41 216.509 191.55C216.929 190.69 217.546 190.047 218.359 189.62C219.173 189.193 220.173 188.98 221.359 188.98C221.666 188.98 221.973 188.993 222.279 189.02C222.586 189.047 222.869 189.08 223.129 189.12V183.84H224.729V200H223.369L223.259 198.83H223.149C222.829 199.223 222.413 199.55 221.899 199.81C221.393 200.063 220.813 200.19 220.159 200.19ZM220.519 198.81C221.006 198.81 221.483 198.703 221.949 198.49C222.416 198.277 222.809 197.937 223.129 197.47V190.48C222.889 190.42 222.609 190.373 222.289 190.34C221.969 190.307 221.653 190.29 221.339 190.29C220.079 190.29 219.126 190.63 218.479 191.31C217.839 191.99 217.519 193.107 217.519 194.66C217.519 195.727 217.646 196.563 217.899 197.17C218.159 197.77 218.513 198.193 218.959 198.44C219.413 198.687 219.933 198.81 220.519 198.81ZM236.861 200.19C235.834 200.19 234.964 199.997 234.251 199.61C233.538 199.217 232.994 198.61 232.621 197.79C232.248 196.963 232.061 195.893 232.061 194.58C232.061 193.267 232.261 192.2 232.661 191.38C233.068 190.553 233.658 189.947 234.431 189.56C235.204 189.173 236.151 188.98 237.271 188.98C237.651 188.98 238.031 189.003 238.411 189.05C238.791 189.097 239.154 189.167 239.501 189.26V190.62C239.148 190.527 238.798 190.457 238.451 190.41C238.111 190.363 237.774 190.34 237.441 190.34C236.608 190.34 235.914 190.477 235.361 190.75C234.808 191.023 234.394 191.467 234.121 192.08C233.854 192.693 233.721 193.513 233.721 194.54C233.721 195.593 233.848 196.433 234.101 197.06C234.354 197.687 234.731 198.14 235.231 198.42C235.738 198.693 236.358 198.83 237.091 198.83C237.444 198.83 237.814 198.797 238.201 198.73C238.588 198.657 239.021 198.543 239.501 198.39V199.74C239.074 199.893 238.638 200.007 238.191 200.08C237.751 200.153 237.308 200.19 236.861 200.19ZM245.333 200.19C244.4 200.19 243.587 199.997 242.893 199.61C242.2 199.217 241.663 198.61 241.283 197.79C240.903 196.963 240.713 195.893 240.713 194.58C240.713 193.28 240.9 192.217 241.273 191.39C241.653 190.563 242.19 189.957 242.883 189.57C243.577 189.177 244.393 188.98 245.333 188.98C246.273 188.98 247.09 189.177 247.783 189.57C248.477 189.957 249.01 190.563 249.383 191.39C249.763 192.21 249.953 193.273 249.953 194.58C249.953 195.88 249.76 196.943 249.373 197.77C248.993 198.597 248.457 199.207 247.763 199.6C247.077 199.993 246.267 200.19 245.333 200.19ZM245.333 198.89C245.947 198.89 246.477 198.757 246.923 198.49C247.37 198.223 247.713 197.78 247.953 197.16C248.2 196.533 248.323 195.683 248.323 194.61C248.323 193.517 248.2 192.657 247.953 192.03C247.713 191.397 247.367 190.95 246.913 190.69C246.467 190.423 245.94 190.29 245.333 190.29C244.72 190.29 244.19 190.423 243.743 190.69C243.297 190.95 242.95 191.393 242.703 192.02C242.463 192.64 242.343 193.487 242.343 194.56C242.343 195.647 242.463 196.507 242.703 197.14C242.95 197.767 243.297 198.217 243.743 198.49C244.19 198.757 244.72 198.89 245.333 198.89ZM252.397 200V189.15H253.747L253.857 190.37H253.967C254.407 189.923 254.92 189.58 255.507 189.34C256.093 189.1 256.717 188.98 257.377 188.98C258.057 188.98 258.657 189.107 259.177 189.36C259.703 189.607 260.113 190.013 260.407 190.58C260.707 191.14 260.857 191.89 260.857 192.83V200H259.267V192.9C259.267 191.967 259.06 191.32 258.647 190.96C258.24 190.593 257.687 190.41 256.987 190.41C256.667 190.41 256.327 190.457 255.967 190.55C255.607 190.643 255.253 190.797 254.907 191.01C254.567 191.223 254.263 191.507 253.997 191.86V200H252.397ZM267.904 200.19C266.797 200.19 265.937 199.907 265.324 199.34C264.711 198.767 264.404 197.853 264.404 196.6V189.15L264.664 185.2H266.004V196.34C266.004 197.253 266.191 197.893 266.564 198.26C266.944 198.627 267.507 198.81 268.254 198.81C268.454 198.81 268.661 198.797 268.874 198.77C269.087 198.737 269.321 198.693 269.574 198.64V199.99C269.307 200.057 269.034 200.107 268.754 200.14C268.474 200.173 268.191 200.19 267.904 200.19ZM262.364 190.47V189.15H269.414V190.47H262.364ZM275.697 200.19C274.571 200.19 273.624 200 272.857 199.62C272.097 199.233 271.524 198.63 271.137 197.81C270.751 196.983 270.557 195.903 270.557 194.57C270.557 193.297 270.734 192.247 271.087 191.42C271.447 190.593 271.954 189.98 272.607 189.58C273.267 189.18 274.047 188.98 274.947 188.98C275.834 188.98 276.587 189.183 277.207 189.59C277.834 189.99 278.311 190.607 278.637 191.44C278.964 192.267 279.127 193.323 279.127 194.61V195.1H271.427V194.01H277.947L277.597 194.25C277.597 193.237 277.491 192.43 277.277 191.83C277.071 191.23 276.767 190.8 276.367 190.54C275.974 190.273 275.494 190.14 274.927 190.14C274.367 190.14 273.881 190.27 273.467 190.53C273.054 190.79 272.734 191.22 272.507 191.82C272.287 192.42 272.177 193.23 272.177 194.25V194.81C272.177 195.81 272.311 196.61 272.577 197.21C272.851 197.803 273.261 198.233 273.807 198.5C274.354 198.76 275.047 198.89 275.887 198.89C276.301 198.89 276.727 198.853 277.167 198.78C277.614 198.7 278.087 198.59 278.587 198.45V199.76C278.067 199.907 277.571 200.013 277.097 200.08C276.631 200.153 276.164 200.19 275.697 200.19ZM281.42 200V189.15H282.77L282.88 190.37H282.99C283.43 189.923 283.943 189.58 284.53 189.34C285.117 189.1 285.74 188.98 286.4 188.98C287.08 188.98 287.68 189.107 288.2 189.36C288.727 189.607 289.137 190.013 289.43 190.58C289.73 191.14 289.88 191.89 289.88 192.83V200H288.29V192.9C288.29 191.967 288.083 191.32 287.67 190.96C287.263 190.593 286.71 190.41 286.01 190.41C285.69 190.41 285.35 190.457 284.99 190.55C284.63 190.643 284.277 190.797 283.93 191.01C283.59 191.223 283.287 191.507 283.02 191.86V200H281.42ZM296.927 200.19C295.821 200.19 294.961 199.907 294.347 199.34C293.734 198.767 293.427 197.853 293.427 196.6V189.15L293.687 185.2H295.027V196.34C295.027 197.253 295.214 197.893 295.587 198.26C295.967 198.627 296.531 198.81 297.277 198.81C297.477 198.81 297.684 198.797 297.897 198.77C298.111 198.737 298.344 198.693 298.597 198.64V199.99C298.331 200.057 298.057 200.107 297.777 200.14C297.497 200.173 297.214 200.19 296.927 200.19ZM291.387 190.47V189.15H298.437V190.47H291.387Z" fill="white"/>
<rect x="108" y="12" width="491" height="36" rx="4" fill="white"/>
<g clip-path="url(#clip0_2144_303)">
<rect x="256" y="128.61" width="169" height="44" rx="8" transform="rotate(-10.7803 256 128.61)" fill="white"/>
<g clip-path="url(#clip1_2144_303)">
<path fill-rule="evenodd" clip-rule="evenodd" d="M271.777 141.051C270.845 142.42 271.198 144.273 271.903 147.978C272.609 151.682 272.961 153.535 274.332 154.466C275.701 155.398 277.554 155.045 281.258 154.34L285.188 153.592C288.892 152.887 290.745 152.534 291.676 151.163C292.608 149.794 292.256 147.941 291.55 144.237C290.845 140.532 290.492 138.68 289.122 137.748C287.752 136.816 285.899 137.169 282.195 137.874L278.266 138.622C274.561 139.328 272.708 139.681 271.777 141.051ZM275.848 142.938C276.136 142.845 276.495 142.777 276.888 142.702L279.081 142.285C279.474 142.21 279.833 142.141 280.135 142.122C280.466 142.1 280.829 142.129 281.174 142.336C281.233 142.372 281.289 142.41 281.344 142.452C281.664 142.697 281.824 143.024 281.925 143.339C282.018 143.627 282.086 143.986 282.161 144.379L282.169 144.42C282.206 144.615 282.164 144.817 282.052 144.982C281.94 145.146 281.768 145.26 281.572 145.297C281.377 145.334 281.175 145.292 281.01 145.18C280.846 145.068 280.733 144.896 280.695 144.7C280.61 144.253 280.559 143.987 280.497 143.799C280.437 143.612 280.231 143.619 280.231 143.619C280.035 143.631 279.768 143.681 279.321 143.766L279.002 143.827L280.031 149.23L281.259 148.996C281.454 148.959 281.656 149 281.821 149.112C281.985 149.224 282.099 149.397 282.136 149.592C282.173 149.788 282.131 149.99 282.019 150.154C281.907 150.319 281.735 150.432 281.539 150.469L277.61 151.217C277.414 151.255 277.212 151.213 277.048 151.101C276.883 150.989 276.77 150.816 276.733 150.621C276.696 150.426 276.738 150.223 276.849 150.059C276.961 149.894 277.134 149.781 277.329 149.744L278.557 149.51L277.529 144.107L277.209 144.168C276.762 144.253 276.496 144.305 276.308 144.366C276.308 144.366 276.115 144.435 276.128 144.631C276.14 144.829 276.19 145.095 276.275 145.542C276.312 145.737 276.27 145.94 276.158 146.104C276.046 146.269 275.874 146.382 275.678 146.419C275.483 146.456 275.281 146.414 275.116 146.302C274.952 146.191 274.838 146.018 274.801 145.823L274.794 145.782C274.719 145.389 274.65 145.03 274.631 144.728C274.609 144.397 274.638 144.035 274.845 143.69C274.881 143.63 274.919 143.574 274.961 143.519C275.206 143.2 275.533 143.04 275.848 142.938Z" fill="#303030"/>
</g>
<path d="M414.242 110.696L417.983 130.343L418.376 130.268L414.635 110.621L414.242 110.696Z" fill="#303030" mask="url(#path-10-inside-1_2144_303)"/>
<path d="M305.298 147.727L303.083 136.096L310.282 134.725L310.487 135.802L304.553 136.932L306.358 146.409L312.37 145.265L312.575 146.341L305.298 147.727ZM305.065 142.144L304.86 141.067L310.487 139.996L310.692 141.073L305.065 142.144ZM314.32 146.009L312.696 137.482L313.757 137.28L314.026 138.223L314.113 138.206C314.392 137.789 314.744 137.443 315.169 137.166C315.594 136.89 316.066 136.702 316.584 136.604C317.119 136.502 317.609 136.512 318.056 136.633C318.507 136.748 318.89 137.006 319.205 137.408C319.525 137.803 319.755 138.37 319.895 139.108L320.968 144.743L319.719 144.981L318.656 139.401C318.517 138.668 318.257 138.191 317.879 137.97C317.504 137.742 317.042 137.681 316.492 137.786C316.24 137.834 315.98 137.921 315.711 138.048C315.442 138.176 315.188 138.349 314.947 138.568C314.712 138.787 314.516 139.055 314.359 139.373L315.577 145.77L314.32 146.009ZM326.535 143.838C325.665 144.004 324.947 143.91 324.38 143.556C323.812 143.197 323.435 142.525 323.247 141.54L322.132 135.686L321.746 132.542L322.799 132.342L324.466 141.097C324.602 141.814 324.845 142.29 325.193 142.522C325.547 142.753 326.017 142.813 326.604 142.701C326.761 142.671 326.921 142.63 327.085 142.577C327.247 142.519 327.424 142.45 327.615 142.37L327.817 143.431C327.618 143.523 327.411 143.603 327.195 143.672C326.98 143.74 326.76 143.795 326.535 143.838ZM320.727 137.028L320.529 135.991L326.07 134.936L326.267 135.973L320.727 137.028ZM332.66 142.672C331.774 142.84 331.002 142.833 330.342 142.649C329.687 142.459 329.146 142.07 328.72 141.484C328.292 140.892 327.979 140.072 327.779 139.024C327.589 138.024 327.57 137.172 327.724 136.47C327.884 135.766 328.19 135.208 328.644 134.796C329.102 134.383 329.685 134.109 330.393 133.974C331.09 133.842 331.712 133.889 332.26 134.116C332.812 134.336 333.279 134.749 333.661 135.356C334.041 135.956 334.328 136.762 334.52 137.773L334.593 138.159L328.542 139.311L328.379 138.454L333.503 137.478L333.264 137.719C333.112 136.923 332.908 136.305 332.65 135.865C332.398 135.425 332.095 135.132 331.742 134.988C331.393 134.837 330.996 134.804 330.551 134.889C330.11 134.973 329.747 135.148 329.462 135.414C329.176 135.68 328.988 136.066 328.9 136.571C328.817 137.076 328.852 137.729 329.004 138.53L329.088 138.971C329.238 139.756 329.462 140.365 329.762 140.797C330.065 141.222 330.452 141.499 330.921 141.627C331.39 141.749 331.954 141.748 332.614 141.622C332.939 141.56 333.269 141.467 333.604 141.344C333.943 141.214 334.298 141.057 334.67 140.872L334.866 141.902C334.48 142.095 334.105 142.253 333.743 142.376C333.388 142.503 333.026 142.602 332.66 142.672ZM337.129 141.666L335.505 133.139L336.558 132.939L336.877 134.059L336.956 134.044C337.173 133.585 337.481 133.211 337.883 132.923C338.288 132.629 338.732 132.435 339.214 132.344C339.345 132.319 339.464 132.302 339.57 132.292C339.682 132.282 339.793 132.277 339.902 132.278L340.123 133.441C339.999 133.443 339.876 133.453 339.754 133.471C339.638 133.487 339.512 133.509 339.375 133.534C339.098 133.587 338.815 133.687 338.528 133.834C338.246 133.975 337.988 134.162 337.756 134.397C337.523 134.626 337.338 134.894 337.201 135.203L338.386 141.427L337.129 141.666ZM349.927 139.384C349.057 139.55 348.339 139.456 347.772 139.102C347.205 138.743 346.827 138.071 346.639 137.086L345.525 131.232L345.138 128.089L346.191 127.888L347.858 136.643C347.995 137.36 348.237 137.836 348.585 138.068C348.939 138.299 349.409 138.359 349.996 138.247C350.153 138.217 350.313 138.176 350.477 138.123C350.64 138.065 350.817 137.996 351.008 137.916L351.21 138.977C351.01 139.069 350.803 139.149 350.588 139.218C350.373 139.286 350.152 139.341 349.927 139.384ZM344.119 132.574L343.921 131.537L349.462 130.482L349.659 131.519L344.119 132.574ZM356.052 138.218C355.166 138.386 354.394 138.379 353.735 138.195C353.079 138.005 352.539 137.616 352.112 137.03C351.684 136.438 351.371 135.618 351.171 134.57C350.981 133.57 350.963 132.718 351.117 132.016C351.276 131.312 351.582 130.754 352.036 130.342C352.495 129.929 353.078 129.655 353.785 129.52C354.482 129.388 355.104 129.435 355.652 129.662C356.205 129.882 356.672 130.295 357.053 130.902C357.433 131.502 357.72 132.308 357.912 133.319L357.986 133.705L351.934 134.857L351.771 134L356.895 133.024L356.656 133.265C356.504 132.469 356.3 131.851 356.043 131.412C355.79 130.971 355.488 130.678 355.134 130.534C354.785 130.383 354.388 130.35 353.943 130.435C353.503 130.519 353.14 130.694 352.854 130.96C352.568 131.226 352.381 131.612 352.292 132.117C352.209 132.622 352.244 133.275 352.397 134.076L352.48 134.517C352.63 135.302 352.855 135.911 353.154 136.343C353.458 136.768 353.844 137.045 354.314 137.173C354.782 137.295 355.346 137.294 356.007 137.168C356.331 137.106 356.661 137.013 356.996 136.89C357.335 136.76 357.691 136.603 358.063 136.418L358.259 137.448C357.872 137.641 357.498 137.799 357.136 137.922C356.78 138.049 356.419 138.148 356.052 138.218ZM365.509 136.263L362.426 133.331L361.515 132.568L357.677 128.918L359.115 128.644L362.109 131.494L363.013 132.267L366.947 135.989L365.509 136.263ZM359.245 137.455L361.515 132.568L362.109 131.494L363.846 127.743L365.237 127.478L363.013 132.267L362.426 133.331L360.652 137.187L359.245 137.455ZM371.385 135.298C370.516 135.464 369.797 135.37 369.231 135.016C368.663 134.658 368.285 133.986 368.098 133.001L366.983 127.146L366.596 124.003L367.649 123.802L369.316 132.557C369.453 133.275 369.695 133.75 370.044 133.982C370.397 134.213 370.867 134.273 371.454 134.161C371.611 134.131 371.772 134.09 371.935 134.037C372.098 133.979 372.275 133.91 372.466 133.83L372.668 134.891C372.468 134.984 372.261 135.064 372.046 135.132C371.831 135.2 371.611 135.255 371.385 135.298ZM365.577 128.489L365.38 127.451L370.92 126.396L371.118 127.434L365.577 128.489ZM377.82 133.919L375.401 121.219L376.659 120.979L377.634 126.103L377.705 126.09C377.982 125.662 378.329 125.317 378.746 125.053C379.161 124.784 379.623 124.601 380.131 124.504C380.65 124.405 381.13 124.417 381.571 124.539C382.017 124.655 382.397 124.911 382.711 125.308C383.026 125.704 383.253 126.271 383.394 127.01L384.468 132.653L383.219 132.891L382.155 127.303C382.015 126.569 381.754 126.095 381.371 125.88C380.992 125.659 380.533 125.6 379.993 125.703C379.731 125.753 379.466 125.844 379.198 125.976C378.929 126.104 378.677 126.277 378.442 126.495C378.206 126.708 378.011 126.971 377.859 127.282L379.077 133.679L377.82 133.919ZM390.373 131.683C389.487 131.852 388.715 131.844 388.055 131.66C387.4 131.47 386.86 131.082 386.433 130.495C386.005 129.903 385.692 129.083 385.492 128.036C385.302 127.035 385.283 126.183 385.437 125.481C385.597 124.777 385.903 124.219 386.357 123.807C386.816 123.394 387.399 123.12 388.106 122.986C388.803 122.853 389.425 122.9 389.973 123.127C390.526 123.347 390.992 123.761 391.374 124.367C391.754 124.967 392.041 125.773 392.233 126.785L392.307 127.17L386.255 128.322L386.092 127.465L391.216 126.49L390.977 126.731C390.825 125.934 390.621 125.316 390.363 124.877C390.111 124.436 389.809 124.144 389.455 123.999C389.106 123.848 388.709 123.815 388.264 123.9C387.824 123.984 387.461 124.159 387.175 124.425C386.889 124.691 386.702 125.077 386.613 125.583C386.53 126.087 386.565 126.74 386.718 127.542L386.801 127.982C386.951 128.768 387.175 129.376 387.475 129.808C387.778 130.233 388.165 130.51 388.634 130.638C389.103 130.76 389.667 130.759 390.327 130.633C390.652 130.571 390.982 130.478 391.317 130.355C391.656 130.225 392.012 130.068 392.384 129.883L392.58 130.913C392.193 131.106 391.818 131.264 391.456 131.387C391.101 131.515 390.739 131.613 390.373 131.683ZM394.842 130.677L393.218 122.151L394.271 121.95L394.591 123.07L394.669 123.055C394.886 122.596 395.195 122.222 395.596 121.934C396.001 121.64 396.445 121.447 396.927 121.355C397.058 121.33 397.177 121.313 397.284 121.303C397.396 121.293 397.506 121.288 397.615 121.289L397.836 122.452C397.712 122.454 397.589 122.464 397.467 122.482C397.351 122.498 397.225 122.52 397.088 122.546C396.811 122.599 396.529 122.698 396.242 122.845C395.959 122.986 395.701 123.173 395.469 123.408C395.236 123.637 395.051 123.905 394.914 124.214L396.099 130.438L394.842 130.677ZM403.926 129.102C403.041 129.271 402.268 129.263 401.609 129.079C400.954 128.889 400.413 128.501 399.986 127.914C399.559 127.323 399.245 126.503 399.046 125.455C398.855 124.454 398.837 123.603 398.991 122.9C399.15 122.197 399.456 121.639 399.91 121.227C400.369 120.813 400.952 120.54 401.659 120.405C402.356 120.272 402.979 120.319 403.527 120.546C404.079 120.767 404.546 121.18 404.927 121.786C405.308 122.387 405.594 123.193 405.787 124.204L405.86 124.589L399.809 125.741L399.646 124.885L404.77 123.909L404.53 124.15C404.379 123.354 404.174 122.736 403.917 122.296C403.665 121.855 403.362 121.563 403.009 121.418C402.66 121.268 402.262 121.235 401.817 121.32C401.377 121.403 401.014 121.578 400.728 121.845C400.442 122.111 400.255 122.496 400.167 123.002C400.084 123.506 400.118 124.159 400.271 124.961L400.355 125.401C400.504 126.187 400.729 126.796 401.028 127.227C401.332 127.653 401.718 127.929 402.188 128.057C402.656 128.18 403.221 128.178 403.881 128.052C404.206 127.991 404.536 127.898 404.87 127.774C405.209 127.645 405.565 127.487 405.937 127.303L406.133 128.332C405.746 128.525 405.372 128.683 405.01 128.806C404.654 128.934 404.293 129.033 403.926 129.102Z" fill="#303030"/>
</g>
<rect x="453" y="213" width="135" height="114" rx="8" fill="white"/>
<path d="M544.305 249.64C526.679 247.219 511.479 260.307 512.5 277.667M505.833 244.333C505.833 245.748 506.395 247.104 507.395 248.105C508.396 249.105 509.752 249.667 511.167 249.667C512.581 249.667 513.938 249.105 514.938 248.105C515.938 247.104 516.5 245.748 516.5 244.333C516.5 242.919 515.938 241.562 514.938 240.562C513.938 239.562 512.581 239 511.167 239C509.752 239 508.396 239.562 507.395 240.562C506.395 241.562 505.833 242.919 505.833 244.333Z" stroke="#303030" stroke-width="1.5" stroke-linecap="round" stroke-linejoin="round"/>
<path d="M496.5 257.843C503.913 256.816 510.567 260.397 514.164 266.109" stroke="#303030" stroke-width="1.5" stroke-linecap="round" stroke-linejoin="round"/>
<path d="M496.5 255C496.5 243.685 496.5 238.029 500.015 234.515C503.529 231 509.188 231 520.5 231C531.815 231 537.471 231 540.985 234.515C544.5 238.029 544.5 243.688 544.5 255C544.5 266.315 544.5 271.971 540.985 275.485C537.471 279 531.812 279 520.5 279C509.185 279 503.529 279 500.015 275.485C496.5 271.971 496.5 266.312 496.5 255Z" stroke="#303030" stroke-width="1.5" stroke-linecap="round" stroke-linejoin="round"/>
<path d="M577.8 297V317H578.2V297H577.8Z" fill="#303030" mask="url(#path-17-inside-2_2144_303)"/>
<path d="M463.852 313V301.16H465.148V306.336H471.404V301.16H472.708V313H471.404V307.512H465.148V313H463.852ZM478.927 313.152C478.025 313.152 477.268 313 476.655 312.696C476.047 312.387 475.588 311.904 475.279 311.248C474.969 310.587 474.815 309.723 474.815 308.656C474.815 307.637 474.956 306.797 475.238 306.136C475.527 305.475 475.932 304.984 476.455 304.664C476.983 304.344 477.607 304.184 478.327 304.184C479.036 304.184 479.639 304.347 480.135 304.672C480.636 304.992 481.017 305.485 481.279 306.152C481.54 306.813 481.671 307.659 481.671 308.688V309.08H475.511V308.208H480.727L480.447 308.4C480.447 307.589 480.361 306.944 480.191 306.464C480.025 305.984 479.783 305.64 479.463 305.432C479.148 305.219 478.764 305.112 478.311 305.112C477.863 305.112 477.473 305.216 477.143 305.424C476.812 305.632 476.556 305.976 476.375 306.456C476.199 306.936 476.111 307.584 476.111 308.4V308.848C476.111 309.648 476.217 310.288 476.431 310.768C476.649 311.243 476.977 311.587 477.415 311.8C477.852 312.008 478.407 312.112 479.079 312.112C479.409 312.112 479.751 312.083 480.103 312.024C480.46 311.96 480.839 311.872 481.239 311.76V312.808C480.823 312.925 480.425 313.011 480.047 313.064C479.673 313.123 479.3 313.152 478.927 313.152ZM485.594 313.144C484.778 313.144 484.136 312.933 483.666 312.512C483.202 312.091 482.97 311.512 482.97 310.776C482.97 310.019 483.218 309.429 483.714 309.008C484.216 308.581 485.018 308.315 486.122 308.208L488.45 307.96L488.57 308.808L486.202 309.064C485.514 309.133 485.018 309.301 484.714 309.568C484.416 309.829 484.266 310.192 484.266 310.656C484.266 311.141 484.405 311.512 484.682 311.768C484.96 312.024 485.373 312.152 485.922 312.152C486.301 312.152 486.682 312.072 487.066 311.912C487.45 311.747 487.794 311.472 488.098 311.088V307.256C488.098 306.723 488.016 306.312 487.85 306.024C487.685 305.731 487.437 305.525 487.106 305.408C486.776 305.291 486.36 305.232 485.858 305.232C485.533 305.232 485.162 305.261 484.746 305.32C484.336 305.379 483.925 305.477 483.514 305.616V304.568C483.888 304.445 484.298 304.352 484.746 304.288C485.2 304.219 485.626 304.184 486.026 304.184C486.762 304.184 487.376 304.28 487.866 304.472C488.362 304.664 488.733 304.989 488.978 305.448C489.229 305.901 489.354 306.523 489.354 307.312V313H488.282L488.186 312.032H488.106C487.824 312.389 487.461 312.664 487.018 312.856C486.581 313.048 486.106 313.144 485.594 313.144ZM494.637 313.152C494.007 313.152 493.434 313.011 492.917 312.728C492.399 312.44 491.986 311.981 491.677 311.352C491.373 310.723 491.221 309.885 491.221 308.84C491.221 307.795 491.386 306.928 491.717 306.24C492.053 305.552 492.546 305.037 493.197 304.696C493.847 304.355 494.647 304.184 495.597 304.184C495.842 304.184 496.087 304.195 496.333 304.216C496.578 304.237 496.805 304.264 497.013 304.296V300.072H498.293V313H497.205L497.117 312.064H497.029C496.773 312.379 496.439 312.64 496.029 312.848C495.623 313.051 495.159 313.152 494.637 313.152ZM494.925 312.048C495.314 312.048 495.695 311.963 496.069 311.792C496.442 311.621 496.757 311.349 497.013 310.976V305.384C496.821 305.336 496.597 305.299 496.341 305.272C496.085 305.245 495.831 305.232 495.581 305.232C494.573 305.232 493.81 305.504 493.293 306.048C492.781 306.592 492.525 307.485 492.525 308.728C492.525 309.581 492.626 310.251 492.829 310.736C493.037 311.216 493.319 311.555 493.677 311.752C494.039 311.949 494.455 312.048 494.925 312.048ZM500.708 313V300.072H501.988V313H500.708ZM504.411 313V304.32H505.691V313H504.411ZM505.051 302.432C504.763 302.432 504.542 302.363 504.387 302.224C504.238 302.08 504.163 301.883 504.163 301.632C504.163 301.376 504.238 301.176 504.387 301.032C504.542 300.888 504.763 300.816 505.051 300.816C505.339 300.816 505.558 300.888 505.707 301.032C505.862 301.176 505.939 301.376 505.939 301.632C505.939 301.883 505.862 302.08 505.707 302.224C505.558 302.363 505.339 302.432 505.051 302.432ZM508.114 313V304.32H509.194L509.282 305.296H509.37C509.722 304.939 510.133 304.664 510.602 304.472C511.072 304.28 511.57 304.184 512.098 304.184C512.642 304.184 513.122 304.285 513.538 304.488C513.96 304.685 514.288 305.011 514.522 305.464C514.762 305.912 514.882 306.512 514.882 307.264V313H513.61V307.32C513.61 306.573 513.445 306.056 513.114 305.768C512.789 305.475 512.346 305.328 511.786 305.328C511.53 305.328 511.258 305.365 510.97 305.44C510.682 305.515 510.4 305.637 510.122 305.808C509.85 305.979 509.608 306.205 509.394 306.488V313H508.114ZM520.864 313.152C519.963 313.152 519.205 313 518.592 312.696C517.984 312.387 517.525 311.904 517.216 311.248C516.907 310.587 516.752 309.723 516.752 308.656C516.752 307.637 516.893 306.797 517.176 306.136C517.464 305.475 517.869 304.984 518.392 304.664C518.92 304.344 519.544 304.184 520.264 304.184C520.973 304.184 521.576 304.347 522.072 304.672C522.573 304.992 522.955 305.485 523.216 306.152C523.477 306.813 523.608 307.659 523.608 308.688V309.08H517.448V308.208H522.664L522.384 308.4C522.384 307.589 522.299 306.944 522.128 306.464C521.963 305.984 521.72 305.64 521.4 305.432C521.085 305.219 520.701 305.112 520.248 305.112C519.8 305.112 519.411 305.216 519.08 305.424C518.749 305.632 518.493 305.976 518.312 306.456C518.136 306.936 518.048 307.584 518.048 308.4V308.848C518.048 309.648 518.155 310.288 518.368 310.768C518.587 311.243 518.915 311.587 519.352 311.8C519.789 312.008 520.344 312.112 521.016 312.112C521.347 312.112 521.688 312.083 522.04 312.024C522.397 311.96 522.776 311.872 523.176 311.76V312.808C522.76 312.925 522.363 313.011 521.984 313.064C521.611 313.123 521.237 313.152 520.864 313.152Z" fill="#303030"/>
<rect x="117" y="271" width="135" height="114" rx="8" fill="white"/>
<path fill-rule="evenodd" clip-rule="evenodd" d="M187.167 289H171.167C169.752 289 168.396 289.562 167.395 290.562C166.395 291.562 165.833 292.919 165.833 294.333V331.667C165.833 333.081 166.395 334.438 167.395 335.438C168.396 336.438 169.752 337 171.167 337H197.833C199.248 337 200.604 336.438 201.605 335.438C202.605 334.438 203.167 333.081 203.167 331.667V305H193.833C192.065 305 190.37 304.298 189.119 303.047C187.869 301.797 187.167 300.101 187.167 298.333V289ZM202.681 302.333C202.414 301.75 202.044 301.22 201.588 300.768L191.263 290.547C190.845 290.132 190.361 289.79 189.831 289.533V298.333C189.831 298.859 189.934 299.379 190.135 299.865C190.337 300.35 190.631 300.791 191.003 301.163C191.375 301.534 191.816 301.829 192.302 302.03C192.787 302.23 193.308 302.334 193.833 302.333H202.681Z" fill="#303030" fill-opacity="0.25"/>
<path d="M179.167 323.979V312.688C179.167 312.452 179.229 312.22 179.348 312.017C179.467 311.813 179.637 311.644 179.843 311.528C180.048 311.411 180.28 311.352 180.516 311.354C180.752 311.357 180.983 311.423 181.185 311.544L190.593 317.189C190.791 317.308 190.955 317.475 191.068 317.676C191.182 317.876 191.242 318.103 191.242 318.333C191.242 318.564 191.182 318.79 191.068 318.991C190.955 319.191 190.791 319.359 190.593 319.477L181.185 325.123C180.983 325.244 180.752 325.309 180.516 325.312C180.279 325.315 180.047 325.255 179.841 325.138C179.636 325.022 179.465 324.853 179.347 324.648C179.228 324.444 179.166 324.212 179.167 323.976" fill="#303030"/>
<path d="M241.8 355V375H242.2V355H241.8Z" fill="#303030" mask="url(#path-23-inside-3_2144_303)"/>
<path d="M127.852 371V359.16H129.148V364.336H135.404V359.16H136.708V371H135.404V365.512H129.148V371H127.852ZM142.927 371.152C142.025 371.152 141.268 371 140.655 370.696C140.047 370.387 139.588 369.904 139.279 369.248C138.969 368.587 138.815 367.723 138.815 366.656C138.815 365.637 138.956 364.797 139.238 364.136C139.527 363.475 139.932 362.984 140.455 362.664C140.983 362.344 141.607 362.184 142.327 362.184C143.036 362.184 143.639 362.347 144.135 362.672C144.636 362.992 145.017 363.485 145.279 364.152C145.54 364.813 145.671 365.659 145.671 366.688V367.08H139.511V366.208H144.727L144.447 366.4C144.447 365.589 144.361 364.944 144.191 364.464C144.025 363.984 143.783 363.64 143.463 363.432C143.148 363.219 142.764 363.112 142.311 363.112C141.863 363.112 141.473 363.216 141.143 363.424C140.812 363.632 140.556 363.976 140.375 364.456C140.199 364.936 140.111 365.584 140.111 366.4V366.848C140.111 367.648 140.217 368.288 140.431 368.768C140.649 369.243 140.977 369.587 141.415 369.8C141.852 370.008 142.407 370.112 143.079 370.112C143.409 370.112 143.751 370.083 144.103 370.024C144.46 369.96 144.839 369.872 145.239 369.76V370.808C144.823 370.925 144.425 371.011 144.047 371.064C143.673 371.123 143.3 371.152 142.927 371.152ZM149.594 371.144C148.778 371.144 148.136 370.933 147.666 370.512C147.202 370.091 146.97 369.512 146.97 368.776C146.97 368.019 147.218 367.429 147.714 367.008C148.216 366.581 149.018 366.315 150.122 366.208L152.45 365.96L152.57 366.808L150.202 367.064C149.514 367.133 149.018 367.301 148.714 367.568C148.416 367.829 148.266 368.192 148.266 368.656C148.266 369.141 148.405 369.512 148.682 369.768C148.96 370.024 149.373 370.152 149.922 370.152C150.301 370.152 150.682 370.072 151.066 369.912C151.45 369.747 151.794 369.472 152.098 369.088V365.256C152.098 364.723 152.016 364.312 151.85 364.024C151.685 363.731 151.437 363.525 151.106 363.408C150.776 363.291 150.36 363.232 149.858 363.232C149.533 363.232 149.162 363.261 148.746 363.32C148.336 363.379 147.925 363.477 147.514 363.616V362.568C147.888 362.445 148.298 362.352 148.746 362.288C149.2 362.219 149.626 362.184 150.026 362.184C150.762 362.184 151.376 362.28 151.866 362.472C152.362 362.664 152.733 362.989 152.978 363.448C153.229 363.901 153.354 364.523 153.354 365.312V371H152.282L152.186 370.032H152.106C151.824 370.389 151.461 370.664 151.018 370.856C150.581 371.048 150.106 371.144 149.594 371.144ZM158.637 371.152C158.007 371.152 157.434 371.011 156.917 370.728C156.399 370.44 155.986 369.981 155.677 369.352C155.373 368.723 155.221 367.885 155.221 366.84C155.221 365.795 155.386 364.928 155.717 364.24C156.053 363.552 156.546 363.037 157.197 362.696C157.847 362.355 158.647 362.184 159.597 362.184C159.842 362.184 160.087 362.195 160.333 362.216C160.578 362.237 160.805 362.264 161.013 362.296V358.072H162.293V371H161.205L161.117 370.064H161.029C160.773 370.379 160.439 370.64 160.029 370.848C159.623 371.051 159.159 371.152 158.637 371.152ZM158.925 370.048C159.314 370.048 159.695 369.963 160.069 369.792C160.442 369.621 160.757 369.349 161.013 368.976V363.384C160.821 363.336 160.597 363.299 160.341 363.272C160.085 363.245 159.831 363.232 159.581 363.232C158.573 363.232 157.81 363.504 157.293 364.048C156.781 364.592 156.525 365.485 156.525 366.728C156.525 367.581 156.626 368.251 156.829 368.736C157.037 369.216 157.319 369.555 157.677 369.752C158.039 369.949 158.455 370.048 158.925 370.048ZM164.708 371V358.072H165.988V371H164.708ZM168.411 371V362.32H169.691V371H168.411ZM169.051 360.432C168.763 360.432 168.542 360.363 168.387 360.224C168.238 360.08 168.163 359.883 168.163 359.632C168.163 359.376 168.238 359.176 168.387 359.032C168.542 358.888 168.763 358.816 169.051 358.816C169.339 358.816 169.558 358.888 169.707 359.032C169.862 359.176 169.939 359.376 169.939 359.632C169.939 359.883 169.862 360.08 169.707 360.224C169.558 360.363 169.339 360.432 169.051 360.432ZM172.114 371V362.32H173.194L173.282 363.296H173.37C173.722 362.939 174.133 362.664 174.602 362.472C175.072 362.28 175.57 362.184 176.098 362.184C176.642 362.184 177.122 362.285 177.538 362.488C177.96 362.685 178.288 363.011 178.522 363.464C178.762 363.912 178.882 364.512 178.882 365.264V371H177.61V365.32C177.61 364.573 177.445 364.056 177.114 363.768C176.789 363.475 176.346 363.328 175.786 363.328C175.53 363.328 175.258 363.365 174.97 363.44C174.682 363.515 174.4 363.637 174.122 363.808C173.85 363.979 173.608 364.205 173.394 364.488V371H172.114ZM184.864 371.152C183.963 371.152 183.205 371 182.592 370.696C181.984 370.387 181.525 369.904 181.216 369.248C180.907 368.587 180.752 367.723 180.752 366.656C180.752 365.637 180.893 364.797 181.176 364.136C181.464 363.475 181.869 362.984 182.392 362.664C182.92 362.344 183.544 362.184 184.264 362.184C184.973 362.184 185.576 362.347 186.072 362.672C186.573 362.992 186.955 363.485 187.216 364.152C187.477 364.813 187.608 365.659 187.608 366.688V367.08H181.448V366.208H186.664L186.384 366.4C186.384 365.589 186.299 364.944 186.128 364.464C185.963 363.984 185.72 363.64 185.4 363.432C185.085 363.219 184.701 363.112 184.248 363.112C183.8 363.112 183.411 363.216 183.08 363.424C182.749 363.632 182.493 363.976 182.312 364.456C182.136 364.936 182.048 365.584 182.048 366.4V366.848C182.048 367.648 182.155 368.288 182.368 368.768C182.587 369.243 182.915 369.587 183.352 369.8C183.789 370.008 184.344 370.112 185.016 370.112C185.347 370.112 185.688 370.083 186.04 370.024C186.397 369.96 186.776 369.872 187.176 369.76V370.808C186.76 370.925 186.363 371.011 185.984 371.064C185.611 371.123 185.237 371.152 184.864 371.152Z" fill="#303030"/>
<defs>
<clipPath id="clip0_2144_303">
<rect x="256" y="128.61" width="169" height="44" rx="8" transform="rotate(-10.7803 256 128.61)" fill="white"/>
</clipPath>
<clipPath id="clip1_2144_303">
<rect width="24" height="24" fill="white" transform="translate(267.694 136.564) rotate(-10.7803)"/>
</clipPath>
</defs>
</svg>
