<svg width="33" height="32" viewBox="0 0 33 32" fill="none" xmlns="http://www.w3.org/2000/svg">
<path d="M26.5 4H6.5C5.96957 4 5.46086 4.21071 5.08579 4.58579C4.71071 4.96086 4.5 5.46957 4.5 6V26C4.5 26.5304 4.71071 27.0391 5.08579 27.4142C5.46086 27.7893 5.96957 28 6.5 28H26.5C27.0304 28 27.5391 27.7893 27.9142 27.4142C28.2893 27.0391 28.5 26.5304 28.5 26V6C28.5 5.46957 28.2893 4.96086 27.9142 4.58579C27.5391 4.21071 27.0304 4 26.5 4ZM23.2075 21.2925C23.3004 21.3854 23.3741 21.4957 23.4244 21.6171C23.4747 21.7385 23.5006 21.8686 23.5006 22C23.5006 22.1314 23.4747 22.2615 23.4244 22.3829C23.3741 22.5043 23.3004 22.6146 23.2075 22.7075C23.1146 22.8004 23.0043 22.8741 22.8829 22.9244C22.7615 22.9747 22.6314 23.0006 22.5 23.0006C22.3686 23.0006 22.2385 22.9747 22.1171 22.9244C21.9957 22.8741 21.8854 22.8004 21.7925 22.7075L16.5 17.4137L11.2075 22.7075C11.0199 22.8951 10.7654 23.0006 10.5 23.0006C10.2346 23.0006 9.98014 22.8951 9.7925 22.7075C9.60486 22.5199 9.49944 22.2654 9.49944 22C9.49944 21.7346 9.60486 21.4801 9.7925 21.2925L15.0863 16L9.7925 10.7075C9.60486 10.5199 9.49944 10.2654 9.49944 10C9.49944 9.73464 9.60486 9.48014 9.7925 9.2925C9.98014 9.10486 10.2346 8.99944 10.5 8.99944C10.7654 8.99944 11.0199 9.10486 11.2075 9.2925L16.5 14.5863L21.7925 9.2925C21.9801 9.10486 22.2346 8.99944 22.5 8.99944C22.7654 8.99944 23.0199 9.10486 23.2075 9.2925C23.3951 9.48014 23.5006 9.73464 23.5006 10C23.5006 10.2654 23.3951 10.5199 23.2075 10.7075L17.9137 16L23.2075 21.2925Z" fill="black"/>
</svg>
